M48
INCH,TZ
T1C0.0157
T2C0.0315
T3C0.0374
T4C0.0394
%
G90
G05
T1
X52000Y-32250
X52550Y-35600
X53340Y-38640
X53522Y-37059
X55400Y-35800
X55420Y-34040
X55820Y-35493
X56260Y-39000
X56300Y-36280
X57350Y-29300
X57480Y-37340
X57760Y-39080
X58484Y-39100
X59150Y-37700
X59550Y-38450
X59750Y-45250
X61300Y-40250
X62250Y-40050
X63960Y-29560
X64750Y-40050
X65320Y-32240
X65440Y-34240
X65520Y-35740
X65600Y-34940
X66300Y-28550
X66300Y-30650
X69500Y-22880
T2
X49400Y-36600
X49400Y-38529
T3
X68504Y-46063
X69488Y-46063
X70472Y-46063
T4
X62288Y-46063
X63272Y-46063
X71943Y-21014
X71947Y-27633
X71947Y-28633
X71947Y-29633
X71947Y-30633
X72069Y-32820
X72069Y-33820
X72069Y-34820
X72943Y-21014
X74922Y-36802
X74922Y-37802
X74922Y-38802
X74922Y-39802
X74922Y-40802
T0
M30
