M48
INCH
T1C0.0157
T2C0.0315
T3C0.0374
T4C0.0394
%
G90
G05
T1
X5.2Y-3.225
X5.255Y-3.56
X5.334Y-3.864
X5.3522Y-3.7059
X5.54Y-3.58
X5.542Y-3.404
X5.582Y-3.5493
X5.626Y-3.9
X5.63Y-3.628
X5.735Y-2.93
X5.748Y-3.734
X5.776Y-3.908
X5.8484Y-3.91
X5.915Y-3.77
X5.955Y-3.845
X5.975Y-4.525
X6.13Y-4.025
X6.225Y-4.005
X6.396Y-2.956
X6.475Y-4.005
X6.532Y-3.224
X6.544Y-3.424
X6.552Y-3.574
X6.56Y-3.494
X6.63Y-2.855
X6.63Y-3.065
T2
X4.94Y-3.66
X4.94Y-3.8529
T3
X6.8504Y-4.6063
X6.9488Y-4.6063
X7.0472Y-4.6063
T4
X6.2288Y-4.6063
X6.298Y-2.0142
X6.3272Y-4.6063
X6.398Y-2.0142
X6.498Y-2.0142
X7.1947Y-2.7633
X7.1947Y-2.8633
X7.1947Y-2.9633
X7.1947Y-3.0633
X7.308Y-2.0142
X7.408Y-2.0142
X7.4922Y-3.6802
X7.4922Y-3.7802
X7.4922Y-3.8802
X7.4922Y-3.9802
X7.4922Y-4.0802
T0
M30
