G04 #@! TF.GenerationSoftware,KiCad,Pcbnew,(6.0.1)*
G04 #@! TF.CreationDate,2022-02-13T23:22:14+02:00*
G04 #@! TF.ProjectId,enlarger_timer,656e6c61-7267-4657-925f-74696d65722e,rev?*
G04 #@! TF.SameCoordinates,Original*
G04 #@! TF.FileFunction,Soldermask,Top*
G04 #@! TF.FilePolarity,Negative*
%FSLAX46Y46*%
G04 Gerber Fmt 4.6, Leading zero omitted, Abs format (unit mm)*
G04 Created by KiCad (PCBNEW (6.0.1)) date 2022-02-13 23:22:14*
%MOMM*%
%LPD*%
G01*
G04 APERTURE LIST*
G04 Aperture macros list*
%AMRoundRect*
0 Rectangle with rounded corners*
0 $1 Rounding radius*
0 $2 $3 $4 $5 $6 $7 $8 $9 X,Y pos of 4 corners*
0 Add a 4 corners polygon primitive as box body*
4,1,4,$2,$3,$4,$5,$6,$7,$8,$9,$2,$3,0*
0 Add four circle primitives for the rounded corners*
1,1,$1+$1,$2,$3*
1,1,$1+$1,$4,$5*
1,1,$1+$1,$6,$7*
1,1,$1+$1,$8,$9*
0 Add four rect primitives between the rounded corners*
20,1,$1+$1,$2,$3,$4,$5,0*
20,1,$1+$1,$4,$5,$6,$7,0*
20,1,$1+$1,$6,$7,$8,$9,0*
20,1,$1+$1,$8,$9,$2,$3,0*%
G04 Aperture macros list end*
%ADD10R,1.700000X1.700000*%
%ADD11O,1.700000X1.700000*%
%ADD12C,1.500000*%
%ADD13RoundRect,0.075000X-0.725000X-0.075000X0.725000X-0.075000X0.725000X0.075000X-0.725000X0.075000X0*%
%ADD14RoundRect,0.075000X-0.075000X-0.725000X0.075000X-0.725000X0.075000X0.725000X-0.075000X0.725000X0*%
%ADD15RoundRect,0.250000X0.262500X0.450000X-0.262500X0.450000X-0.262500X-0.450000X0.262500X-0.450000X0*%
%ADD16RoundRect,0.250000X0.450000X-0.262500X0.450000X0.262500X-0.450000X0.262500X-0.450000X-0.262500X0*%
%ADD17RoundRect,0.250000X-0.262500X-0.450000X0.262500X-0.450000X0.262500X0.450000X-0.262500X0.450000X0*%
%ADD18RoundRect,0.250000X-0.450000X0.262500X-0.450000X-0.262500X0.450000X-0.262500X0.450000X0.262500X0*%
%ADD19RoundRect,0.250000X-0.600000X-0.750000X0.600000X-0.750000X0.600000X0.750000X-0.600000X0.750000X0*%
%ADD20O,1.700000X2.000000*%
%ADD21RoundRect,0.250000X-0.600000X-0.725000X0.600000X-0.725000X0.600000X0.725000X-0.600000X0.725000X0*%
%ADD22O,1.700000X1.950000*%
%ADD23R,1.560000X0.650000*%
%ADD24RoundRect,0.243750X0.243750X0.456250X-0.243750X0.456250X-0.243750X-0.456250X0.243750X-0.456250X0*%
%ADD25RoundRect,0.250000X-0.475000X0.250000X-0.475000X-0.250000X0.475000X-0.250000X0.475000X0.250000X0*%
%ADD26RoundRect,0.250000X-0.250000X-0.475000X0.250000X-0.475000X0.250000X0.475000X-0.250000X0.475000X0*%
%ADD27RoundRect,0.250000X0.475000X-0.250000X0.475000X0.250000X-0.475000X0.250000X-0.475000X-0.250000X0*%
%ADD28RoundRect,0.250000X0.250000X0.475000X-0.250000X0.475000X-0.250000X-0.475000X0.250000X-0.475000X0*%
G04 APERTURE END LIST*
D10*
X183054600Y-88443000D03*
D11*
X183054600Y-85903000D03*
X183054600Y-83363000D03*
D10*
X185275000Y-53375000D03*
D11*
X182735000Y-53375000D03*
D12*
X125476000Y-92964000D03*
X125476000Y-97864000D03*
D13*
X145098000Y-79427000D03*
X145098000Y-79927000D03*
X145098000Y-80427000D03*
X145098000Y-80927000D03*
X145098000Y-81427000D03*
X145098000Y-81927000D03*
X145098000Y-82427000D03*
X145098000Y-82927000D03*
X145098000Y-83427000D03*
X145098000Y-83927000D03*
X145098000Y-84427000D03*
X145098000Y-84927000D03*
X145098000Y-85427000D03*
X145098000Y-85927000D03*
X145098000Y-86427000D03*
X145098000Y-86927000D03*
X145098000Y-87427000D03*
X145098000Y-87927000D03*
X145098000Y-88427000D03*
X145098000Y-88927000D03*
X145098000Y-89427000D03*
X145098000Y-89927000D03*
X145098000Y-90427000D03*
X145098000Y-90927000D03*
X145098000Y-91427000D03*
D14*
X146773000Y-93102000D03*
X147273000Y-93102000D03*
X147773000Y-93102000D03*
X148273000Y-93102000D03*
X148773000Y-93102000D03*
X149273000Y-93102000D03*
X149773000Y-93102000D03*
X150273000Y-93102000D03*
X150773000Y-93102000D03*
X151273000Y-93102000D03*
X151773000Y-93102000D03*
X152273000Y-93102000D03*
X152773000Y-93102000D03*
X153273000Y-93102000D03*
X153773000Y-93102000D03*
X154273000Y-93102000D03*
X154773000Y-93102000D03*
X155273000Y-93102000D03*
X155773000Y-93102000D03*
X156273000Y-93102000D03*
X156773000Y-93102000D03*
X157273000Y-93102000D03*
X157773000Y-93102000D03*
X158273000Y-93102000D03*
X158773000Y-93102000D03*
D13*
X160448000Y-91427000D03*
X160448000Y-90927000D03*
X160448000Y-90427000D03*
X160448000Y-89927000D03*
X160448000Y-89427000D03*
X160448000Y-88927000D03*
X160448000Y-88427000D03*
X160448000Y-87927000D03*
X160448000Y-87427000D03*
X160448000Y-86927000D03*
X160448000Y-86427000D03*
X160448000Y-85927000D03*
X160448000Y-85427000D03*
X160448000Y-84927000D03*
X160448000Y-84427000D03*
X160448000Y-83927000D03*
X160448000Y-83427000D03*
X160448000Y-82927000D03*
X160448000Y-82427000D03*
X160448000Y-81927000D03*
X160448000Y-81427000D03*
X160448000Y-80927000D03*
X160448000Y-80427000D03*
X160448000Y-79927000D03*
X160448000Y-79427000D03*
D14*
X158773000Y-77752000D03*
X158273000Y-77752000D03*
X157773000Y-77752000D03*
X157273000Y-77752000D03*
X156773000Y-77752000D03*
X156273000Y-77752000D03*
X155773000Y-77752000D03*
X155273000Y-77752000D03*
X154773000Y-77752000D03*
X154273000Y-77752000D03*
X153773000Y-77752000D03*
X153273000Y-77752000D03*
X152773000Y-77752000D03*
X152273000Y-77752000D03*
X151773000Y-77752000D03*
X151273000Y-77752000D03*
X150773000Y-77752000D03*
X150273000Y-77752000D03*
X149773000Y-77752000D03*
X149273000Y-77752000D03*
X148773000Y-77752000D03*
X148273000Y-77752000D03*
X147773000Y-77752000D03*
X147273000Y-77752000D03*
X146773000Y-77752000D03*
D15*
X135905500Y-105747000D03*
X134080500Y-105747000D03*
D16*
X151757000Y-112755500D03*
X151757000Y-110930500D03*
X156837000Y-112755500D03*
X156837000Y-110930500D03*
D17*
X153384500Y-106763000D03*
X155209500Y-106763000D03*
D15*
X133500500Y-87884000D03*
X131675500Y-87884000D03*
D16*
X149979000Y-72115500D03*
X149979000Y-70290500D03*
D18*
X149979000Y-64702500D03*
X149979000Y-66527500D03*
X155059000Y-64702500D03*
X155059000Y-66527500D03*
D19*
X158211200Y-117000000D03*
D20*
X160711200Y-117000000D03*
D21*
X174000000Y-117000000D03*
D22*
X176500000Y-117000000D03*
X179000000Y-117000000D03*
D10*
X190303000Y-93477000D03*
D11*
X190303000Y-96017000D03*
X190303000Y-98557000D03*
X190303000Y-101097000D03*
X190303000Y-103637000D03*
D10*
X182745000Y-77807000D03*
D11*
X182745000Y-75267000D03*
X182745000Y-72727000D03*
X182745000Y-70187000D03*
D23*
X187938400Y-61605200D03*
X187938400Y-60655200D03*
X187938400Y-59705200D03*
X185238400Y-59705200D03*
X185238400Y-61605200D03*
D24*
X130850500Y-105747000D03*
X128975500Y-105747000D03*
D25*
X177117200Y-87355600D03*
X177117200Y-89255600D03*
X177117200Y-82021600D03*
X177117200Y-83921600D03*
D26*
X164457000Y-72473000D03*
X166357000Y-72473000D03*
D27*
X173278800Y-62621200D03*
X173278800Y-60721200D03*
D28*
X179918400Y-60655200D03*
X178018400Y-60655200D03*
D25*
X164457000Y-97685000D03*
X164457000Y-99585000D03*
D27*
X187960000Y-74610000D03*
X187960000Y-72710000D03*
D28*
X145105200Y-101396800D03*
X143205200Y-101396800D03*
X179918400Y-57251600D03*
X178018400Y-57251600D03*
D27*
X134993000Y-83837000D03*
X134993000Y-81937000D03*
D28*
X136003900Y-92628800D03*
X137903900Y-92628800D03*
X138157900Y-87736800D03*
X136257900Y-87736800D03*
D26*
X141663000Y-75267000D03*
X143563000Y-75267000D03*
X164523000Y-77807000D03*
X166423000Y-77807000D03*
D27*
X194208400Y-64145200D03*
X194208400Y-62245200D03*
D26*
X164523000Y-93047000D03*
X166423000Y-93047000D03*
D25*
X194208400Y-57165200D03*
X194208400Y-59065200D03*
D28*
X141023000Y-80347000D03*
X139123000Y-80347000D03*
D26*
X141663000Y-65361000D03*
X143563000Y-65361000D03*
X141663000Y-70187000D03*
X143563000Y-70187000D03*
D25*
X143891000Y-93919000D03*
X143891000Y-95819000D03*
D26*
X131572000Y-98298000D03*
X133472000Y-98298000D03*
X167721200Y-81280000D03*
X169621200Y-81280000D03*
D25*
X158107000Y-97685000D03*
X158107000Y-99585000D03*
D26*
X131638000Y-92710000D03*
X133538000Y-92710000D03*
M02*
