G04 #@! TF.GenerationSoftware,KiCad,Pcbnew,(6.0.1)*
G04 #@! TF.CreationDate,2022-02-13T22:45:21+02:00*
G04 #@! TF.ProjectId,enlarger_timer,656e6c61-7267-4657-925f-74696d65722e,rev?*
G04 #@! TF.SameCoordinates,Original*
G04 #@! TF.FileFunction,Soldermask,Bot*
G04 #@! TF.FilePolarity,Negative*
%FSLAX46Y46*%
G04 Gerber Fmt 4.6, Leading zero omitted, Abs format (unit mm)*
G04 Created by KiCad (PCBNEW (6.0.1)) date 2022-02-13 22:45:21*
%MOMM*%
%LPD*%
G01*
G04 APERTURE LIST*
G04 Aperture macros list*
%AMRoundRect*
0 Rectangle with rounded corners*
0 $1 Rounding radius*
0 $2 $3 $4 $5 $6 $7 $8 $9 X,Y pos of 4 corners*
0 Add a 4 corners polygon primitive as box body*
4,1,4,$2,$3,$4,$5,$6,$7,$8,$9,$2,$3,0*
0 Add four circle primitives for the rounded corners*
1,1,$1+$1,$2,$3*
1,1,$1+$1,$4,$5*
1,1,$1+$1,$6,$7*
1,1,$1+$1,$8,$9*
0 Add four rect primitives between the rounded corners*
20,1,$1+$1,$2,$3,$4,$5,0*
20,1,$1+$1,$4,$5,$6,$7,0*
20,1,$1+$1,$6,$7,$8,$9,0*
20,1,$1+$1,$8,$9,$2,$3,0*%
G04 Aperture macros list end*
%ADD10RoundRect,0.381000X-1.619000X-0.381000X1.619000X-0.381000X1.619000X0.381000X-1.619000X0.381000X0*%
%ADD11R,1.300000X1.550000*%
%ADD12RoundRect,0.250000X-0.475000X0.250000X-0.475000X-0.250000X0.475000X-0.250000X0.475000X0.250000X0*%
%ADD13RoundRect,0.250000X0.475000X-0.250000X0.475000X0.250000X-0.475000X0.250000X-0.475000X-0.250000X0*%
%ADD14R,1.700000X1.700000*%
%ADD15O,1.700000X1.700000*%
%ADD16C,1.500000*%
%ADD17R,1.550000X1.300000*%
%ADD18RoundRect,0.250000X-0.600000X-0.750000X0.600000X-0.750000X0.600000X0.750000X-0.600000X0.750000X0*%
%ADD19O,1.700000X2.000000*%
%ADD20RoundRect,0.250000X-0.600000X-0.725000X0.600000X-0.725000X0.600000X0.725000X-0.600000X0.725000X0*%
%ADD21O,1.700000X1.950000*%
%ADD22RoundRect,0.250000X-0.250000X-0.475000X0.250000X-0.475000X0.250000X0.475000X-0.250000X0.475000X0*%
%ADD23RoundRect,0.250000X0.250000X0.475000X-0.250000X0.475000X-0.250000X-0.475000X0.250000X-0.475000X0*%
G04 APERTURE END LIST*
D10*
X168783000Y-63500000D03*
X168783000Y-68580000D03*
X168783000Y-66040000D03*
D11*
X126252800Y-74025000D03*
X126252800Y-81975000D03*
X121752800Y-81975000D03*
X121752800Y-74025000D03*
X126252800Y-59730000D03*
X126252800Y-67680000D03*
X121752800Y-67680000D03*
X121752800Y-59730000D03*
D12*
X130200400Y-75829200D03*
X130200400Y-73929200D03*
D13*
X129997200Y-67635200D03*
X129997200Y-65735200D03*
D14*
X183054600Y-88443000D03*
D15*
X183054600Y-85903000D03*
X183054600Y-83363000D03*
D14*
X185275000Y-53375000D03*
D15*
X182735000Y-53375000D03*
D16*
X125476000Y-92964000D03*
X125476000Y-97864000D03*
D11*
X153198000Y-51727000D03*
X153198000Y-43777000D03*
X157698000Y-43777000D03*
X157698000Y-51727000D03*
X142022000Y-51727000D03*
X142022000Y-43777000D03*
X146522000Y-43777000D03*
X146522000Y-51727000D03*
X130846000Y-51727000D03*
X130846000Y-43777000D03*
X135346000Y-43777000D03*
X135346000Y-51727000D03*
X171994000Y-51727000D03*
X171994000Y-43777000D03*
X176494000Y-43777000D03*
X176494000Y-51727000D03*
D17*
X144907000Y-114935000D03*
X136957000Y-114935000D03*
X136957000Y-110435000D03*
X144907000Y-110435000D03*
D18*
X158211200Y-117000000D03*
D19*
X160711200Y-117000000D03*
D20*
X174000000Y-117000000D03*
D21*
X176500000Y-117000000D03*
X179000000Y-117000000D03*
D14*
X190303000Y-93477000D03*
D15*
X190303000Y-96017000D03*
X190303000Y-98557000D03*
X190303000Y-101097000D03*
X190303000Y-103637000D03*
D14*
X182745000Y-77807000D03*
D15*
X182745000Y-75267000D03*
X182745000Y-72727000D03*
X182745000Y-70187000D03*
D22*
X152974000Y-55880000D03*
X154874000Y-55880000D03*
X141798000Y-55372000D03*
X143698000Y-55372000D03*
X131130000Y-55880000D03*
X133030000Y-55880000D03*
X171770000Y-55372000D03*
X173670000Y-55372000D03*
D23*
X177378400Y-70408800D03*
X175478400Y-70408800D03*
D22*
X175461000Y-65699400D03*
X177361000Y-65699400D03*
X142966400Y-106019600D03*
X144866400Y-106019600D03*
M02*
