G04 #@! TF.GenerationSoftware,KiCad,Pcbnew,(6.0.1)*
G04 #@! TF.CreationDate,2022-02-12T19:29:05+02:00*
G04 #@! TF.ProjectId,enlarger_timer,656e6c61-7267-4657-925f-74696d65722e,rev?*
G04 #@! TF.SameCoordinates,Original*
G04 #@! TF.FileFunction,Copper,L1,Top*
G04 #@! TF.FilePolarity,Positive*
%FSLAX46Y46*%
G04 Gerber Fmt 4.6, Leading zero omitted, Abs format (unit mm)*
G04 Created by KiCad (PCBNEW (6.0.1)) date 2022-02-12 19:29:05*
%MOMM*%
%LPD*%
G01*
G04 APERTURE LIST*
G04 Aperture macros list*
%AMRoundRect*
0 Rectangle with rounded corners*
0 $1 Rounding radius*
0 $2 $3 $4 $5 $6 $7 $8 $9 X,Y pos of 4 corners*
0 Add a 4 corners polygon primitive as box body*
4,1,4,$2,$3,$4,$5,$6,$7,$8,$9,$2,$3,0*
0 Add four circle primitives for the rounded corners*
1,1,$1+$1,$2,$3*
1,1,$1+$1,$4,$5*
1,1,$1+$1,$6,$7*
1,1,$1+$1,$8,$9*
0 Add four rect primitives between the rounded corners*
20,1,$1+$1,$2,$3,$4,$5,0*
20,1,$1+$1,$4,$5,$6,$7,0*
20,1,$1+$1,$6,$7,$8,$9,0*
20,1,$1+$1,$8,$9,$2,$3,0*%
G04 Aperture macros list end*
G04 #@! TA.AperFunction,ComponentPad*
%ADD10R,1.700000X1.700000*%
G04 #@! TD*
G04 #@! TA.AperFunction,ComponentPad*
%ADD11O,1.700000X1.700000*%
G04 #@! TD*
G04 #@! TA.AperFunction,ComponentPad*
%ADD12C,1.500000*%
G04 #@! TD*
G04 #@! TA.AperFunction,SMDPad,CuDef*
%ADD13RoundRect,0.075000X-0.725000X-0.075000X0.725000X-0.075000X0.725000X0.075000X-0.725000X0.075000X0*%
G04 #@! TD*
G04 #@! TA.AperFunction,SMDPad,CuDef*
%ADD14RoundRect,0.075000X-0.075000X-0.725000X0.075000X-0.725000X0.075000X0.725000X-0.075000X0.725000X0*%
G04 #@! TD*
G04 #@! TA.AperFunction,SMDPad,CuDef*
%ADD15RoundRect,0.250000X0.262500X0.450000X-0.262500X0.450000X-0.262500X-0.450000X0.262500X-0.450000X0*%
G04 #@! TD*
G04 #@! TA.AperFunction,SMDPad,CuDef*
%ADD16RoundRect,0.250000X0.450000X-0.262500X0.450000X0.262500X-0.450000X0.262500X-0.450000X-0.262500X0*%
G04 #@! TD*
G04 #@! TA.AperFunction,SMDPad,CuDef*
%ADD17RoundRect,0.250000X-0.262500X-0.450000X0.262500X-0.450000X0.262500X0.450000X-0.262500X0.450000X0*%
G04 #@! TD*
G04 #@! TA.AperFunction,SMDPad,CuDef*
%ADD18RoundRect,0.250000X-0.450000X0.262500X-0.450000X-0.262500X0.450000X-0.262500X0.450000X0.262500X0*%
G04 #@! TD*
G04 #@! TA.AperFunction,ComponentPad*
%ADD19RoundRect,0.250000X-0.600000X-0.750000X0.600000X-0.750000X0.600000X0.750000X-0.600000X0.750000X0*%
G04 #@! TD*
G04 #@! TA.AperFunction,ComponentPad*
%ADD20O,1.700000X2.000000*%
G04 #@! TD*
G04 #@! TA.AperFunction,ComponentPad*
%ADD21RoundRect,0.250000X-0.600000X-0.725000X0.600000X-0.725000X0.600000X0.725000X-0.600000X0.725000X0*%
G04 #@! TD*
G04 #@! TA.AperFunction,ComponentPad*
%ADD22O,1.700000X1.950000*%
G04 #@! TD*
G04 #@! TA.AperFunction,SMDPad,CuDef*
%ADD23R,1.560000X0.650000*%
G04 #@! TD*
G04 #@! TA.AperFunction,SMDPad,CuDef*
%ADD24RoundRect,0.243750X0.243750X0.456250X-0.243750X0.456250X-0.243750X-0.456250X0.243750X-0.456250X0*%
G04 #@! TD*
G04 #@! TA.AperFunction,SMDPad,CuDef*
%ADD25RoundRect,0.250000X-0.250000X-0.475000X0.250000X-0.475000X0.250000X0.475000X-0.250000X0.475000X0*%
G04 #@! TD*
G04 #@! TA.AperFunction,SMDPad,CuDef*
%ADD26RoundRect,0.250000X0.250000X0.475000X-0.250000X0.475000X-0.250000X-0.475000X0.250000X-0.475000X0*%
G04 #@! TD*
G04 #@! TA.AperFunction,SMDPad,CuDef*
%ADD27RoundRect,0.250000X-0.475000X0.250000X-0.475000X-0.250000X0.475000X-0.250000X0.475000X0.250000X0*%
G04 #@! TD*
G04 #@! TA.AperFunction,SMDPad,CuDef*
%ADD28RoundRect,0.250000X0.475000X-0.250000X0.475000X0.250000X-0.475000X0.250000X-0.475000X-0.250000X0*%
G04 #@! TD*
G04 #@! TA.AperFunction,ViaPad*
%ADD29C,0.800000*%
G04 #@! TD*
G04 #@! TA.AperFunction,Conductor*
%ADD30C,0.250000*%
G04 #@! TD*
G04 #@! TA.AperFunction,Conductor*
%ADD31C,0.800000*%
G04 #@! TD*
G04 APERTURE END LIST*
D10*
X165049400Y-51161800D03*
D11*
X162509400Y-51161800D03*
X159969400Y-51161800D03*
D10*
X188163200Y-51161800D03*
D11*
X185623200Y-51161800D03*
D12*
X125476000Y-92964000D03*
X125476000Y-97864000D03*
D13*
X145098000Y-79427000D03*
X145098000Y-79927000D03*
X145098000Y-80427000D03*
X145098000Y-80927000D03*
X145098000Y-81427000D03*
X145098000Y-81927000D03*
X145098000Y-82427000D03*
X145098000Y-82927000D03*
X145098000Y-83427000D03*
X145098000Y-83927000D03*
X145098000Y-84427000D03*
X145098000Y-84927000D03*
X145098000Y-85427000D03*
X145098000Y-85927000D03*
X145098000Y-86427000D03*
X145098000Y-86927000D03*
X145098000Y-87427000D03*
X145098000Y-87927000D03*
X145098000Y-88427000D03*
X145098000Y-88927000D03*
X145098000Y-89427000D03*
X145098000Y-89927000D03*
X145098000Y-90427000D03*
X145098000Y-90927000D03*
X145098000Y-91427000D03*
D14*
X146773000Y-93102000D03*
X147273000Y-93102000D03*
X147773000Y-93102000D03*
X148273000Y-93102000D03*
X148773000Y-93102000D03*
X149273000Y-93102000D03*
X149773000Y-93102000D03*
X150273000Y-93102000D03*
X150773000Y-93102000D03*
X151273000Y-93102000D03*
X151773000Y-93102000D03*
X152273000Y-93102000D03*
X152773000Y-93102000D03*
X153273000Y-93102000D03*
X153773000Y-93102000D03*
X154273000Y-93102000D03*
X154773000Y-93102000D03*
X155273000Y-93102000D03*
X155773000Y-93102000D03*
X156273000Y-93102000D03*
X156773000Y-93102000D03*
X157273000Y-93102000D03*
X157773000Y-93102000D03*
X158273000Y-93102000D03*
X158773000Y-93102000D03*
D13*
X160448000Y-91427000D03*
X160448000Y-90927000D03*
X160448000Y-90427000D03*
X160448000Y-89927000D03*
X160448000Y-89427000D03*
X160448000Y-88927000D03*
X160448000Y-88427000D03*
X160448000Y-87927000D03*
X160448000Y-87427000D03*
X160448000Y-86927000D03*
X160448000Y-86427000D03*
X160448000Y-85927000D03*
X160448000Y-85427000D03*
X160448000Y-84927000D03*
X160448000Y-84427000D03*
X160448000Y-83927000D03*
X160448000Y-83427000D03*
X160448000Y-82927000D03*
X160448000Y-82427000D03*
X160448000Y-81927000D03*
X160448000Y-81427000D03*
X160448000Y-80927000D03*
X160448000Y-80427000D03*
X160448000Y-79927000D03*
X160448000Y-79427000D03*
D14*
X158773000Y-77752000D03*
X158273000Y-77752000D03*
X157773000Y-77752000D03*
X157273000Y-77752000D03*
X156773000Y-77752000D03*
X156273000Y-77752000D03*
X155773000Y-77752000D03*
X155273000Y-77752000D03*
X154773000Y-77752000D03*
X154273000Y-77752000D03*
X153773000Y-77752000D03*
X153273000Y-77752000D03*
X152773000Y-77752000D03*
X152273000Y-77752000D03*
X151773000Y-77752000D03*
X151273000Y-77752000D03*
X150773000Y-77752000D03*
X150273000Y-77752000D03*
X149773000Y-77752000D03*
X149273000Y-77752000D03*
X148773000Y-77752000D03*
X148273000Y-77752000D03*
X147773000Y-77752000D03*
X147273000Y-77752000D03*
X146773000Y-77752000D03*
D15*
X135905500Y-105747000D03*
X134080500Y-105747000D03*
D16*
X151757000Y-112755500D03*
X151757000Y-110930500D03*
X156837000Y-112755500D03*
X156837000Y-110930500D03*
D17*
X153384500Y-106763000D03*
X155209500Y-106763000D03*
D15*
X133500500Y-87884000D03*
X131675500Y-87884000D03*
D16*
X149979000Y-72115500D03*
X149979000Y-70290500D03*
D18*
X149979000Y-64702500D03*
X149979000Y-66527500D03*
X155059000Y-64702500D03*
X155059000Y-66527500D03*
D19*
X158211200Y-117000000D03*
D20*
X160711200Y-117000000D03*
D21*
X174000000Y-117000000D03*
D22*
X176500000Y-117000000D03*
X179000000Y-117000000D03*
D10*
X190303000Y-93477000D03*
D11*
X190303000Y-96017000D03*
X190303000Y-98557000D03*
X190303000Y-101097000D03*
X190303000Y-103637000D03*
D10*
X182745000Y-77807000D03*
D11*
X182745000Y-75267000D03*
X182745000Y-72727000D03*
X182745000Y-70187000D03*
D23*
X184603000Y-58437000D03*
X184603000Y-57487000D03*
X184603000Y-56537000D03*
X181903000Y-56537000D03*
X181903000Y-58437000D03*
D24*
X130850500Y-105747000D03*
X128975500Y-105747000D03*
D25*
X163962000Y-57099200D03*
X165862000Y-57099200D03*
X158628000Y-57099200D03*
X160528000Y-57099200D03*
X164457000Y-72473000D03*
X166357000Y-72473000D03*
D26*
X176583000Y-62567000D03*
X174683000Y-62567000D03*
X176583000Y-57487000D03*
X174683000Y-57487000D03*
D27*
X164457000Y-97685000D03*
X164457000Y-99585000D03*
D28*
X187960000Y-74610000D03*
X187960000Y-72710000D03*
D26*
X145105200Y-101396800D03*
X143205200Y-101396800D03*
X179123000Y-52407000D03*
X177223000Y-52407000D03*
D28*
X134993000Y-83837000D03*
X134993000Y-81937000D03*
D26*
X136003900Y-92628800D03*
X137903900Y-92628800D03*
X138157900Y-87736800D03*
X136257900Y-87736800D03*
D25*
X141663000Y-75267000D03*
X143563000Y-75267000D03*
X164523000Y-77807000D03*
X166423000Y-77807000D03*
D28*
X190873000Y-60977000D03*
X190873000Y-59077000D03*
D25*
X164523000Y-93047000D03*
X166423000Y-93047000D03*
D27*
X190873000Y-53997000D03*
X190873000Y-55897000D03*
D26*
X141023000Y-80347000D03*
X139123000Y-80347000D03*
D25*
X141663000Y-65361000D03*
X143563000Y-65361000D03*
X141663000Y-70187000D03*
X143563000Y-70187000D03*
D27*
X143891000Y-93919000D03*
X143891000Y-95819000D03*
D25*
X131572000Y-98298000D03*
X133472000Y-98298000D03*
X167721200Y-81280000D03*
X169621200Y-81280000D03*
D27*
X158107000Y-97685000D03*
X158107000Y-99585000D03*
D25*
X131638000Y-92710000D03*
X133538000Y-92710000D03*
D29*
X142900400Y-99060000D03*
X140766800Y-86461600D03*
X135483600Y-98145600D03*
X166420800Y-90779600D03*
X166624000Y-88747600D03*
X166217600Y-86969600D03*
X162458400Y-75082400D03*
X146710400Y-99263200D03*
X145999200Y-94843600D03*
X143002000Y-92151200D03*
X141782800Y-90151500D03*
X140716000Y-90932000D03*
X165912800Y-81889600D03*
X145669000Y-74422000D03*
X132080000Y-81915000D03*
X168402000Y-77851000D03*
X168402000Y-72517000D03*
X135945900Y-94130800D03*
X133477000Y-90424000D03*
X150241000Y-95758000D03*
X151257000Y-97663000D03*
X148548500Y-99314000D03*
X155702000Y-102235000D03*
X158115000Y-101727000D03*
X164465000Y-101727000D03*
X151765000Y-114935000D03*
D30*
X169926000Y-90830400D02*
X169926000Y-102870000D01*
X158211200Y-117000000D02*
X158211200Y-114584800D01*
X158211200Y-114584800D02*
X169926000Y-102870000D01*
D31*
X174000000Y-117000000D02*
X174000000Y-113528000D01*
X197231000Y-108204000D02*
X197231000Y-100405000D01*
X174000000Y-113528000D02*
X176784000Y-110744000D01*
X197231000Y-100405000D02*
X190303000Y-93477000D01*
X176784000Y-110744000D02*
X194691000Y-110744000D01*
X194691000Y-110744000D02*
X197231000Y-108204000D01*
X173990000Y-117010000D02*
X174000000Y-117000000D01*
D30*
X158773000Y-77752000D02*
X158773000Y-76126200D01*
X158773000Y-76126200D02*
X159816800Y-75082400D01*
X159816800Y-75082400D02*
X162458400Y-75082400D01*
X143205200Y-101396800D02*
X143205200Y-99364800D01*
X143205200Y-99364800D02*
X142900400Y-99060000D01*
X143891000Y-98069400D02*
X142900400Y-99060000D01*
X143891000Y-97790000D02*
X143891000Y-98069400D01*
D31*
X185623200Y-51161800D02*
X185623200Y-52477200D01*
X185623200Y-52477200D02*
X187143000Y-53997000D01*
D30*
X141023000Y-80347000D02*
X141553000Y-80347000D01*
X141553000Y-80347000D02*
X144148000Y-77752000D01*
X145098000Y-84427000D02*
X145963006Y-84427000D01*
X145963006Y-84427000D02*
X146222520Y-84686514D01*
X146222520Y-84686514D02*
X146222520Y-88167486D01*
X146222520Y-88167486D02*
X145963006Y-88427000D01*
X145963006Y-88427000D02*
X145098000Y-88427000D01*
X145098000Y-81927000D02*
X145963006Y-81927000D01*
X145963006Y-81927000D02*
X146222520Y-82186514D01*
X146163984Y-84427000D02*
X145098000Y-84427000D01*
X146222520Y-82186514D02*
X146222520Y-84368464D01*
X146222520Y-84368464D02*
X146163984Y-84427000D01*
X140766800Y-86461600D02*
X141301400Y-85927000D01*
X141301400Y-85927000D02*
X145098000Y-85927000D01*
X135905500Y-105747000D02*
X147745000Y-105747000D01*
X147745000Y-105747000D02*
X149273000Y-104219000D01*
X149273000Y-104219000D02*
X149273000Y-93102000D01*
X128975500Y-105747000D02*
X128975500Y-103382500D01*
X139681400Y-102191000D02*
X141427200Y-103936800D01*
X128975500Y-103382500D02*
X130167000Y-102191000D01*
X130167000Y-102191000D02*
X139681400Y-102191000D01*
X141427200Y-103936800D02*
X144373600Y-103936800D01*
X144373600Y-103936800D02*
X145105200Y-103205200D01*
X145105200Y-103205200D02*
X145105200Y-101396800D01*
X135397200Y-98232000D02*
X135483600Y-98145600D01*
X133538000Y-98232000D02*
X135397200Y-98232000D01*
X134823200Y-95046800D02*
X134823200Y-86817200D01*
X131572000Y-98298000D02*
X134823200Y-95046800D01*
X134823200Y-86817200D02*
X136213400Y-85427000D01*
X136213400Y-85427000D02*
X145098000Y-85427000D01*
X179798200Y-58437000D02*
X177533000Y-58437000D01*
X181903000Y-58437000D02*
X179798200Y-58437000D01*
X179798200Y-58437000D02*
X179798200Y-63010707D01*
X179798200Y-63010707D02*
X187348693Y-70561200D01*
X176583000Y-62567000D02*
X176583000Y-59332200D01*
X176583000Y-59332200D02*
X176583000Y-57487000D01*
X172311400Y-59332200D02*
X168960800Y-55981600D01*
X176583000Y-59332200D02*
X172311400Y-59332200D01*
X168960800Y-55981600D02*
X168960800Y-50596800D01*
X168960800Y-50596800D02*
X166522400Y-48158400D01*
X166522400Y-48158400D02*
X157937200Y-48158400D01*
X157937200Y-48158400D02*
X153281000Y-52814600D01*
X153281000Y-52814600D02*
X153281000Y-61043000D01*
X177533000Y-58437000D02*
X176583000Y-57487000D01*
X155059000Y-64702500D02*
X156686500Y-64702500D01*
X156686500Y-64702500D02*
X164457000Y-72473000D01*
X182745000Y-77807000D02*
X189567000Y-77807000D01*
X189567000Y-77807000D02*
X190754000Y-76620000D01*
X190754000Y-71475600D02*
X189839600Y-70561200D01*
X190754000Y-76620000D02*
X190754000Y-71475600D01*
X189839600Y-70561200D02*
X187348693Y-70561200D01*
X169926000Y-89611200D02*
X169926000Y-90830400D01*
X166420800Y-90779600D02*
X169875200Y-90779600D01*
X169875200Y-90779600D02*
X169926000Y-90830400D01*
X166624000Y-88737994D02*
X166624000Y-88747600D01*
X161313006Y-83427000D02*
X166624000Y-88737994D01*
X160448000Y-83427000D02*
X161313006Y-83427000D01*
X160448000Y-82927000D02*
X162175000Y-82927000D01*
X162175000Y-82927000D02*
X166217600Y-86969600D01*
X160448000Y-82427000D02*
X162741800Y-82427000D01*
X162741800Y-82427000D02*
X169926000Y-89611200D01*
X146445000Y-95819000D02*
X147273000Y-94991000D01*
X147273000Y-94991000D02*
X147273000Y-93102000D01*
X145105200Y-98582400D02*
X147777200Y-95910400D01*
X145105200Y-101396800D02*
X145105200Y-98582400D01*
X147777200Y-95910400D02*
X147777200Y-93106200D01*
X147777200Y-93106200D02*
X147773000Y-93102000D01*
X146710400Y-98348800D02*
X146710400Y-99263200D01*
X148273000Y-93102000D02*
X148273000Y-96786200D01*
X148273000Y-96786200D02*
X146710400Y-98348800D01*
X148773000Y-93102000D02*
X148773000Y-97962600D01*
X148773000Y-97962600D02*
X148548500Y-98187100D01*
X148548500Y-98187100D02*
X148548500Y-99314000D01*
X146773000Y-93102000D02*
X146773000Y-94069800D01*
X146773000Y-94069800D02*
X145999200Y-94843600D01*
X145098000Y-91427000D02*
X143726200Y-91427000D01*
X143726200Y-91427000D02*
X143002000Y-92151200D01*
X145098000Y-90427000D02*
X142058300Y-90427000D01*
X142058300Y-90427000D02*
X141782800Y-90151500D01*
X145098000Y-90927000D02*
X140721000Y-90927000D01*
X140721000Y-90927000D02*
X140716000Y-90932000D01*
X147773000Y-93102000D02*
X147773000Y-91937406D01*
X147773000Y-91937406D02*
X146862800Y-91027206D01*
X146416600Y-89927000D02*
X146862800Y-90373200D01*
X145098000Y-89927000D02*
X146416600Y-89927000D01*
X146862800Y-90373200D02*
X146862800Y-91027206D01*
X146862800Y-91027206D02*
X143971006Y-93919000D01*
X143971006Y-93919000D02*
X143891000Y-93919000D01*
X145098000Y-89427000D02*
X140089700Y-89427000D01*
X140089700Y-89427000D02*
X137903900Y-91612800D01*
X137903900Y-91612800D02*
X137903900Y-92628800D01*
X137471900Y-88950800D02*
X145074200Y-88950800D01*
X145074200Y-88950800D02*
X145098000Y-88927000D01*
X138157900Y-87736800D02*
X138871900Y-88450800D01*
X138871900Y-88450800D02*
X145074200Y-88450800D01*
X145074200Y-88450800D02*
X145098000Y-88427000D01*
X160448000Y-81927000D02*
X163410200Y-81927000D01*
X163410200Y-81927000D02*
X167640000Y-86156800D01*
X167640000Y-86156800D02*
X170789600Y-86156800D01*
X173888400Y-70561200D02*
X165862000Y-62534800D01*
X170789600Y-86156800D02*
X173888400Y-83058000D01*
X173888400Y-83058000D02*
X173888400Y-70561200D01*
X165862000Y-62534800D02*
X165862000Y-57099200D01*
X162509200Y-60147200D02*
X160121600Y-60147200D01*
X158628000Y-58653600D02*
X158628000Y-57099200D01*
X173278800Y-70916800D02*
X162509200Y-60147200D01*
X160121600Y-60147200D02*
X158628000Y-58653600D01*
X160448000Y-80927000D02*
X164950200Y-80927000D01*
X164950200Y-80927000D02*
X165912800Y-81889600D01*
X160448000Y-81427000D02*
X163723000Y-81427000D01*
X163723000Y-81427000D02*
X167640000Y-85344000D01*
X167640000Y-85344000D02*
X170688000Y-85344000D01*
X170688000Y-85344000D02*
X173278800Y-82753200D01*
X173278800Y-82753200D02*
X173278800Y-70916800D01*
X165049400Y-51161800D02*
X165862000Y-51974400D01*
X165862000Y-51974400D02*
X165862000Y-57099200D01*
X159969400Y-51161800D02*
X158628000Y-52503200D01*
X158628000Y-52503200D02*
X158628000Y-57099200D01*
X160528000Y-57099200D02*
X162626000Y-57099200D01*
X162626000Y-57099200D02*
X163962000Y-57099200D01*
X162509400Y-51161800D02*
X162509400Y-56982600D01*
X162509400Y-56982600D02*
X162626000Y-57099200D01*
X169621200Y-81280000D02*
X169621200Y-79070200D01*
X169621200Y-79070200D02*
X168402000Y-77851000D01*
X160448000Y-80427000D02*
X166868200Y-80427000D01*
X166868200Y-80427000D02*
X167721200Y-81280000D01*
X145653006Y-74437994D02*
X145669000Y-74422000D01*
X145653006Y-75267000D02*
X145653006Y-74437994D01*
X132102000Y-81937000D02*
X132080000Y-81915000D01*
X134993000Y-81937000D02*
X132102000Y-81937000D01*
X168358000Y-77807000D02*
X168402000Y-77851000D01*
X166423000Y-77807000D02*
X168358000Y-77807000D01*
X168358000Y-72473000D02*
X168402000Y-72517000D01*
X166357000Y-72473000D02*
X168358000Y-72473000D01*
X174683000Y-62567000D02*
X174683000Y-66987000D01*
X174683000Y-66987000D02*
X177883000Y-70187000D01*
X177883000Y-70187000D02*
X182745000Y-70187000D01*
X143891000Y-95819000D02*
X143891000Y-97790000D01*
X136003900Y-94072800D02*
X135945900Y-94130800D01*
X136003900Y-92628800D02*
X136003900Y-94072800D01*
X133538000Y-90485000D02*
X133477000Y-90424000D01*
X133538000Y-92710000D02*
X133538000Y-90485000D01*
X149773000Y-95290000D02*
X149773000Y-93102000D01*
X150241000Y-95758000D02*
X149773000Y-95290000D01*
X151257000Y-95123000D02*
X151257000Y-97409000D01*
X151257000Y-97409000D02*
X151257000Y-97663000D01*
X151257000Y-95123000D02*
X151257000Y-93118000D01*
X151257000Y-93118000D02*
X151273000Y-93102000D01*
X155702000Y-95538006D02*
X157273000Y-93967006D01*
X157273000Y-93967006D02*
X157273000Y-93102000D01*
X155702000Y-102235000D02*
X155702000Y-95538006D01*
X158107000Y-101719000D02*
X158115000Y-101727000D01*
X158107000Y-99585000D02*
X158107000Y-101719000D01*
X164457000Y-101719000D02*
X164465000Y-101727000D01*
X164457000Y-99585000D02*
X164457000Y-101719000D01*
X143891000Y-95819000D02*
X146445000Y-95819000D01*
X151757000Y-114927000D02*
X151765000Y-114935000D01*
X151757000Y-112755500D02*
X151757000Y-114927000D01*
D31*
X193667000Y-61043000D02*
X193667000Y-90113000D01*
X193667000Y-90113000D02*
X190303000Y-93477000D01*
D30*
X187960000Y-74610000D02*
X187960000Y-76082000D01*
X187960000Y-76082000D02*
X186235000Y-77807000D01*
X182745000Y-70187000D02*
X185437000Y-70187000D01*
X185437000Y-70187000D02*
X187960000Y-72710000D01*
D31*
X187143000Y-53997000D02*
X188065000Y-53997000D01*
X188065000Y-53997000D02*
X190873000Y-53997000D01*
D30*
X135473000Y-84927000D02*
X145098000Y-84927000D01*
X133500500Y-87884000D02*
X133500500Y-86899500D01*
X133500500Y-86899500D02*
X135473000Y-84927000D01*
X167251000Y-93875000D02*
X167251000Y-98127000D01*
X166423000Y-93047000D02*
X167251000Y-93875000D01*
X167251000Y-98127000D02*
X165793000Y-99585000D01*
X165793000Y-99585000D02*
X164457000Y-99585000D01*
X143563000Y-65361000D02*
X144221500Y-64702500D01*
X144221500Y-64702500D02*
X149979000Y-64702500D01*
X143375000Y-61043000D02*
X141597000Y-62821000D01*
X141597000Y-65295000D02*
X141663000Y-65361000D01*
X153281000Y-61043000D02*
X143375000Y-61043000D01*
X155059000Y-64702500D02*
X155059000Y-62821000D01*
X155059000Y-62821000D02*
X153281000Y-61043000D01*
X141597000Y-62821000D02*
X141597000Y-65295000D01*
X149979000Y-66527500D02*
X155059000Y-66527500D01*
X149979000Y-70290500D02*
X149979000Y-66527500D01*
X149979000Y-72115500D02*
X149773000Y-72321500D01*
X149773000Y-72321500D02*
X149773000Y-77752000D01*
X143563000Y-65361000D02*
X143563000Y-70187000D01*
X141663000Y-65361000D02*
X141663000Y-70187000D01*
X177223000Y-52407000D02*
X177223000Y-53611022D01*
X181098978Y-57487000D02*
X184603000Y-57487000D01*
X177223000Y-53611022D02*
X181098978Y-57487000D01*
X177223000Y-52407000D02*
X174683000Y-54947000D01*
X174683000Y-54947000D02*
X174683000Y-57487000D01*
X181903000Y-56537000D02*
X181903000Y-55187000D01*
X181903000Y-55187000D02*
X179123000Y-52407000D01*
D31*
X193667000Y-61043000D02*
X193667000Y-54439000D01*
X190873000Y-60977000D02*
X190899402Y-60977000D01*
X190899402Y-60977000D02*
X190965402Y-61043000D01*
X193667000Y-54439000D02*
X193225000Y-53997000D01*
X190965402Y-61043000D02*
X193667000Y-61043000D01*
X193225000Y-53997000D02*
X190873000Y-53997000D01*
X184603000Y-58437000D02*
X187143000Y-60977000D01*
X187143000Y-60977000D02*
X190873000Y-60977000D01*
D30*
X190873000Y-59077000D02*
X189283000Y-57487000D01*
X184603000Y-57487000D02*
X189283000Y-57487000D01*
X189283000Y-57487000D02*
X190873000Y-55897000D01*
D31*
X184603000Y-56537000D02*
X187143000Y-53997000D01*
D30*
X186235000Y-77807000D02*
X182745000Y-77807000D01*
X158773000Y-93102000D02*
X161460500Y-95789500D01*
X161460500Y-95789500D02*
X163356000Y-97685000D01*
X156837000Y-112755500D02*
X161460500Y-108132000D01*
X161460500Y-108132000D02*
X161460500Y-95789500D01*
X151757000Y-110930500D02*
X153582000Y-110930500D01*
X153582000Y-110930500D02*
X155209500Y-109303000D01*
X155209500Y-106763000D02*
X155209500Y-109303000D01*
X155209500Y-109303000D02*
X156837000Y-110930500D01*
X153384500Y-106763000D02*
X152273000Y-105651500D01*
X152273000Y-105651500D02*
X152273000Y-93102000D01*
X130850500Y-105747000D02*
X134080500Y-105747000D01*
X131675500Y-87884000D02*
X131675500Y-92672500D01*
X131675500Y-92672500D02*
X131638000Y-92710000D01*
X133538000Y-98232000D02*
X133472000Y-98298000D01*
X125476000Y-97864000D02*
X131138000Y-97864000D01*
X131138000Y-97864000D02*
X131572000Y-98298000D01*
X125476000Y-92964000D02*
X131384000Y-92964000D01*
X131384000Y-92964000D02*
X131638000Y-92710000D01*
X166357000Y-72473000D02*
X166357000Y-77741000D01*
X166357000Y-77741000D02*
X166423000Y-77807000D01*
X164457000Y-72473000D02*
X164457000Y-77741000D01*
X164457000Y-77741000D02*
X164523000Y-77807000D01*
X160448000Y-79927000D02*
X164303000Y-79927000D01*
X164303000Y-79927000D02*
X166423000Y-77807000D01*
X164523000Y-77807000D02*
X162877520Y-79452480D01*
X162877520Y-79452480D02*
X160473480Y-79452480D01*
X160473480Y-79452480D02*
X160448000Y-79427000D01*
X164523000Y-93047000D02*
X158828000Y-93047000D01*
X158828000Y-93047000D02*
X158773000Y-93102000D01*
X163356000Y-97685000D02*
X164457000Y-97685000D01*
X158107000Y-97685000D02*
X158107000Y-94571000D01*
X158107000Y-94571000D02*
X158273000Y-94405000D01*
X158273000Y-94405000D02*
X158273000Y-93102000D01*
X136003900Y-92628800D02*
X136003900Y-90418800D01*
X136003900Y-90418800D02*
X137471900Y-88950800D01*
X137471900Y-88950800D02*
X136257900Y-87736800D01*
X145963006Y-88427000D02*
X146222520Y-88686514D01*
X146222520Y-88686514D02*
X146222520Y-89183480D01*
X146222520Y-89183480D02*
X145979000Y-89427000D01*
X145979000Y-89427000D02*
X145098000Y-89427000D01*
X143563000Y-70187000D02*
X143563000Y-75267000D01*
X141663000Y-70187000D02*
X141663000Y-75267000D01*
X141663000Y-75267000D02*
X144148000Y-77752000D01*
X144148000Y-77752000D02*
X146773000Y-77752000D01*
X143563000Y-75267000D02*
X145653006Y-75267000D01*
X145653006Y-75267000D02*
X147273000Y-76886994D01*
X147273000Y-76886994D02*
X147273000Y-77752000D01*
X136983000Y-83927000D02*
X139033000Y-83927000D01*
X139033000Y-83927000D02*
X145098000Y-83927000D01*
X139123000Y-80347000D02*
X139123000Y-83837000D01*
X139123000Y-83837000D02*
X139033000Y-83927000D01*
X134993000Y-81937000D02*
X136983000Y-83927000D01*
X134993000Y-83837000D02*
X135583000Y-84427000D01*
X135583000Y-84427000D02*
X145098000Y-84427000D01*
X141023000Y-80347000D02*
X142603000Y-81927000D01*
X142603000Y-81927000D02*
X145098000Y-81927000D01*
M02*
