G04 #@! TF.GenerationSoftware,KiCad,Pcbnew,(6.0.1)*
G04 #@! TF.CreationDate,2022-02-13T23:22:14+02:00*
G04 #@! TF.ProjectId,enlarger_timer,656e6c61-7267-4657-925f-74696d65722e,rev?*
G04 #@! TF.SameCoordinates,Original*
G04 #@! TF.FileFunction,Legend,Bot*
G04 #@! TF.FilePolarity,Positive*
%FSLAX46Y46*%
G04 Gerber Fmt 4.6, Leading zero omitted, Abs format (unit mm)*
G04 Created by KiCad (PCBNEW (6.0.1)) date 2022-02-13 23:22:14*
%MOMM*%
%LPD*%
G01*
G04 APERTURE LIST*
%ADD10C,0.150000*%
%ADD11C,0.120000*%
G04 APERTURE END LIST*
D10*
X125223257Y-51369980D02*
X124889923Y-52369980D01*
X124556590Y-51369980D01*
X123842304Y-52322361D02*
X123937542Y-52369980D01*
X124128019Y-52369980D01*
X124223257Y-52322361D01*
X124270876Y-52227123D01*
X124270876Y-51846171D01*
X124223257Y-51750933D01*
X124128019Y-51703314D01*
X123937542Y-51703314D01*
X123842304Y-51750933D01*
X123794685Y-51846171D01*
X123794685Y-51941409D01*
X124270876Y-52036647D01*
X123366114Y-52369980D02*
X123366114Y-51703314D01*
X123366114Y-51893790D02*
X123318495Y-51798552D01*
X123270876Y-51750933D01*
X123175638Y-51703314D01*
X123080400Y-51703314D01*
X121461352Y-52369980D02*
X122032780Y-52369980D01*
X121747066Y-52369980D02*
X121747066Y-51369980D01*
X121842304Y-51512838D01*
X121937542Y-51608076D01*
X122032780Y-51655695D01*
X121032780Y-52274742D02*
X120985161Y-52322361D01*
X121032780Y-52369980D01*
X121080400Y-52322361D01*
X121032780Y-52274742D01*
X121032780Y-52369980D01*
X120366114Y-51369980D02*
X120270876Y-51369980D01*
X120175638Y-51417600D01*
X120128019Y-51465219D01*
X120080400Y-51560457D01*
X120032780Y-51750933D01*
X120032780Y-51989028D01*
X120080400Y-52179504D01*
X120128019Y-52274742D01*
X120175638Y-52322361D01*
X120270876Y-52369980D01*
X120366114Y-52369980D01*
X120461352Y-52322361D01*
X120508971Y-52274742D01*
X120556590Y-52179504D01*
X120604209Y-51989028D01*
X120604209Y-51750933D01*
X120556590Y-51560457D01*
X120508971Y-51465219D01*
X120461352Y-51417600D01*
X120366114Y-51369980D01*
X178814361Y-46031352D02*
X178861980Y-46174209D01*
X178861980Y-46412304D01*
X178814361Y-46507542D01*
X178766742Y-46555161D01*
X178671504Y-46602780D01*
X178576266Y-46602780D01*
X178481028Y-46555161D01*
X178433409Y-46507542D01*
X178385790Y-46412304D01*
X178338171Y-46221828D01*
X178290552Y-46126590D01*
X178242933Y-46078971D01*
X178147695Y-46031352D01*
X178052457Y-46031352D01*
X177957219Y-46078971D01*
X177909600Y-46126590D01*
X177861980Y-46221828D01*
X177861980Y-46459923D01*
X177909600Y-46602780D01*
X178195314Y-46888495D02*
X178195314Y-47269447D01*
X177861980Y-47031352D02*
X178719123Y-47031352D01*
X178814361Y-47078971D01*
X178861980Y-47174209D01*
X178861980Y-47269447D01*
X178861980Y-48031352D02*
X178338171Y-48031352D01*
X178242933Y-47983733D01*
X178195314Y-47888495D01*
X178195314Y-47698019D01*
X178242933Y-47602780D01*
X178814361Y-48031352D02*
X178861980Y-47936114D01*
X178861980Y-47698019D01*
X178814361Y-47602780D01*
X178719123Y-47555161D01*
X178623885Y-47555161D01*
X178528647Y-47602780D01*
X178481028Y-47698019D01*
X178481028Y-47936114D01*
X178433409Y-48031352D01*
X178861980Y-48507542D02*
X178195314Y-48507542D01*
X178385790Y-48507542D02*
X178290552Y-48555161D01*
X178242933Y-48602780D01*
X178195314Y-48698019D01*
X178195314Y-48793257D01*
X178195314Y-48983733D02*
X178195314Y-49364685D01*
X177861980Y-49126590D02*
X178719123Y-49126590D01*
X178814361Y-49174209D01*
X178861980Y-49269447D01*
X178861980Y-49364685D01*
X119959333Y-78430380D02*
X119959333Y-77430380D01*
X119626000Y-78144666D01*
X119292666Y-77430380D01*
X119292666Y-78430380D01*
X118245047Y-78430380D02*
X118578380Y-77954190D01*
X118816476Y-78430380D02*
X118816476Y-77430380D01*
X118435523Y-77430380D01*
X118340285Y-77478000D01*
X118292666Y-77525619D01*
X118245047Y-77620857D01*
X118245047Y-77763714D01*
X118292666Y-77858952D01*
X118340285Y-77906571D01*
X118435523Y-77954190D01*
X118816476Y-77954190D01*
X119776761Y-64714380D02*
X119776761Y-63714380D01*
X119443428Y-64428666D01*
X119110095Y-63714380D01*
X119110095Y-64714380D01*
X118729142Y-63714380D02*
X118491047Y-64714380D01*
X118300571Y-64000095D01*
X118110095Y-64714380D01*
X117872000Y-63714380D01*
X136612380Y-45878952D02*
X136612380Y-46450380D01*
X137612380Y-46164666D02*
X136612380Y-46164666D01*
X137612380Y-46783714D02*
X136945714Y-46783714D01*
X136612380Y-46783714D02*
X136660000Y-46736095D01*
X136707619Y-46783714D01*
X136660000Y-46831333D01*
X136612380Y-46783714D01*
X136707619Y-46783714D01*
X137612380Y-47259904D02*
X136945714Y-47259904D01*
X137040952Y-47259904D02*
X136993333Y-47307523D01*
X136945714Y-47402761D01*
X136945714Y-47545619D01*
X136993333Y-47640857D01*
X137088571Y-47688476D01*
X137612380Y-47688476D01*
X137088571Y-47688476D02*
X136993333Y-47736095D01*
X136945714Y-47831333D01*
X136945714Y-47974190D01*
X136993333Y-48069428D01*
X137088571Y-48117047D01*
X137612380Y-48117047D01*
X137564761Y-48974190D02*
X137612380Y-48878952D01*
X137612380Y-48688476D01*
X137564761Y-48593238D01*
X137469523Y-48545619D01*
X137088571Y-48545619D01*
X136993333Y-48593238D01*
X136945714Y-48688476D01*
X136945714Y-48878952D01*
X136993333Y-48974190D01*
X137088571Y-49021809D01*
X137183809Y-49021809D01*
X137279047Y-48545619D01*
X149201142Y-44656666D02*
X149248761Y-44609047D01*
X149296380Y-44466190D01*
X149296380Y-44370952D01*
X149248761Y-44228095D01*
X149153523Y-44132857D01*
X149058285Y-44085238D01*
X148867809Y-44037619D01*
X148724952Y-44037619D01*
X148534476Y-44085238D01*
X148439238Y-44132857D01*
X148344000Y-44228095D01*
X148296380Y-44370952D01*
X148296380Y-44466190D01*
X148344000Y-44609047D01*
X148391619Y-44656666D01*
X149296380Y-45228095D02*
X149248761Y-45132857D01*
X149201142Y-45085238D01*
X149105904Y-45037619D01*
X148820190Y-45037619D01*
X148724952Y-45085238D01*
X148677333Y-45132857D01*
X148629714Y-45228095D01*
X148629714Y-45370952D01*
X148677333Y-45466190D01*
X148724952Y-45513809D01*
X148820190Y-45561428D01*
X149105904Y-45561428D01*
X149201142Y-45513809D01*
X149248761Y-45466190D01*
X149296380Y-45370952D01*
X149296380Y-45228095D01*
X148629714Y-45990000D02*
X149296380Y-45990000D01*
X148724952Y-45990000D02*
X148677333Y-46037619D01*
X148629714Y-46132857D01*
X148629714Y-46275714D01*
X148677333Y-46370952D01*
X148772571Y-46418571D01*
X149296380Y-46418571D01*
X148629714Y-46751904D02*
X148629714Y-47132857D01*
X148296380Y-46894761D02*
X149153523Y-46894761D01*
X149248761Y-46942380D01*
X149296380Y-47037619D01*
X149296380Y-47132857D01*
X149296380Y-47466190D02*
X148629714Y-47466190D01*
X148820190Y-47466190D02*
X148724952Y-47513809D01*
X148677333Y-47561428D01*
X148629714Y-47656666D01*
X148629714Y-47751904D01*
X149296380Y-48513809D02*
X148772571Y-48513809D01*
X148677333Y-48466190D01*
X148629714Y-48370952D01*
X148629714Y-48180476D01*
X148677333Y-48085238D01*
X149248761Y-48513809D02*
X149296380Y-48418571D01*
X149296380Y-48180476D01*
X149248761Y-48085238D01*
X149153523Y-48037619D01*
X149058285Y-48037619D01*
X148963047Y-48085238D01*
X148915428Y-48180476D01*
X148915428Y-48418571D01*
X148867809Y-48513809D01*
X149248761Y-48942380D02*
X149296380Y-49037619D01*
X149296380Y-49228095D01*
X149248761Y-49323333D01*
X149153523Y-49370952D01*
X149105904Y-49370952D01*
X149010666Y-49323333D01*
X148963047Y-49228095D01*
X148963047Y-49085238D01*
X148915428Y-48990000D01*
X148820190Y-48942380D01*
X148772571Y-48942380D01*
X148677333Y-48990000D01*
X148629714Y-49085238D01*
X148629714Y-49228095D01*
X148677333Y-49323333D01*
X148629714Y-49656666D02*
X148629714Y-50037619D01*
X148296380Y-49799523D02*
X149153523Y-49799523D01*
X149248761Y-49847142D01*
X149296380Y-49942380D01*
X149296380Y-50037619D01*
X159948571Y-44545619D02*
X159996190Y-44688476D01*
X160043809Y-44736095D01*
X160139047Y-44783714D01*
X160281904Y-44783714D01*
X160377142Y-44736095D01*
X160424761Y-44688476D01*
X160472380Y-44593238D01*
X160472380Y-44212285D01*
X159472380Y-44212285D01*
X159472380Y-44545619D01*
X159520000Y-44640857D01*
X159567619Y-44688476D01*
X159662857Y-44736095D01*
X159758095Y-44736095D01*
X159853333Y-44688476D01*
X159900952Y-44640857D01*
X159948571Y-44545619D01*
X159948571Y-44212285D01*
X160472380Y-45212285D02*
X159805714Y-45212285D01*
X159996190Y-45212285D02*
X159900952Y-45259904D01*
X159853333Y-45307523D01*
X159805714Y-45402761D01*
X159805714Y-45498000D01*
X160472380Y-45831333D02*
X159805714Y-45831333D01*
X159472380Y-45831333D02*
X159520000Y-45783714D01*
X159567619Y-45831333D01*
X159520000Y-45878952D01*
X159472380Y-45831333D01*
X159567619Y-45831333D01*
X159805714Y-46736095D02*
X160615238Y-46736095D01*
X160710476Y-46688476D01*
X160758095Y-46640857D01*
X160805714Y-46545619D01*
X160805714Y-46402761D01*
X160758095Y-46307523D01*
X160424761Y-46736095D02*
X160472380Y-46640857D01*
X160472380Y-46450380D01*
X160424761Y-46355142D01*
X160377142Y-46307523D01*
X160281904Y-46259904D01*
X159996190Y-46259904D01*
X159900952Y-46307523D01*
X159853333Y-46355142D01*
X159805714Y-46450380D01*
X159805714Y-46640857D01*
X159853333Y-46736095D01*
X160472380Y-47212285D02*
X159472380Y-47212285D01*
X160472380Y-47640857D02*
X159948571Y-47640857D01*
X159853333Y-47593238D01*
X159805714Y-47498000D01*
X159805714Y-47355142D01*
X159853333Y-47259904D01*
X159900952Y-47212285D01*
X159805714Y-47974190D02*
X159805714Y-48355142D01*
X159472380Y-48117047D02*
X160329523Y-48117047D01*
X160424761Y-48164666D01*
X160472380Y-48259904D01*
X160472380Y-48355142D01*
X159805714Y-48688476D02*
X160472380Y-48688476D01*
X159900952Y-48688476D02*
X159853333Y-48736095D01*
X159805714Y-48831333D01*
X159805714Y-48974190D01*
X159853333Y-49069428D01*
X159948571Y-49117047D01*
X160472380Y-49117047D01*
X160424761Y-49974190D02*
X160472380Y-49878952D01*
X160472380Y-49688476D01*
X160424761Y-49593238D01*
X160329523Y-49545619D01*
X159948571Y-49545619D01*
X159853333Y-49593238D01*
X159805714Y-49688476D01*
X159805714Y-49878952D01*
X159853333Y-49974190D01*
X159948571Y-50021809D01*
X160043809Y-50021809D01*
X160139047Y-49545619D01*
X160424761Y-50402761D02*
X160472380Y-50498000D01*
X160472380Y-50688476D01*
X160424761Y-50783714D01*
X160329523Y-50831333D01*
X160281904Y-50831333D01*
X160186666Y-50783714D01*
X160139047Y-50688476D01*
X160139047Y-50545619D01*
X160091428Y-50450380D01*
X159996190Y-50402761D01*
X159948571Y-50402761D01*
X159853333Y-50450380D01*
X159805714Y-50545619D01*
X159805714Y-50688476D01*
X159853333Y-50783714D01*
X180593904Y-113038000D02*
X180689142Y-112990380D01*
X180832000Y-112990380D01*
X180974857Y-113038000D01*
X181070095Y-113133238D01*
X181117714Y-113228476D01*
X181165333Y-113418952D01*
X181165333Y-113561809D01*
X181117714Y-113752285D01*
X181070095Y-113847523D01*
X180974857Y-113942761D01*
X180832000Y-113990380D01*
X180736761Y-113990380D01*
X180593904Y-113942761D01*
X180546285Y-113895142D01*
X180546285Y-113561809D01*
X180736761Y-113561809D01*
X180117714Y-113990380D02*
X180117714Y-112990380D01*
X179546285Y-113990380D01*
X179546285Y-112990380D01*
X179070095Y-113990380D02*
X179070095Y-112990380D01*
X178832000Y-112990380D01*
X178689142Y-113038000D01*
X178593904Y-113133238D01*
X178546285Y-113228476D01*
X178498666Y-113418952D01*
X178498666Y-113561809D01*
X178546285Y-113752285D01*
X178593904Y-113847523D01*
X178689142Y-113942761D01*
X178832000Y-113990380D01*
X179070095Y-113990380D01*
X177728380Y-113990380D02*
X177728380Y-112990380D01*
X177490285Y-112990380D01*
X177347428Y-113038000D01*
X177252190Y-113133238D01*
X177204571Y-113228476D01*
X177156952Y-113418952D01*
X177156952Y-113561809D01*
X177204571Y-113752285D01*
X177252190Y-113847523D01*
X177347428Y-113942761D01*
X177490285Y-113990380D01*
X177728380Y-113990380D01*
X176299809Y-113990380D02*
X176299809Y-113466571D01*
X176347428Y-113371333D01*
X176442666Y-113323714D01*
X176633142Y-113323714D01*
X176728380Y-113371333D01*
X176299809Y-113942761D02*
X176395047Y-113990380D01*
X176633142Y-113990380D01*
X176728380Y-113942761D01*
X176776000Y-113847523D01*
X176776000Y-113752285D01*
X176728380Y-113657047D01*
X176633142Y-113609428D01*
X176395047Y-113609428D01*
X176299809Y-113561809D01*
X175966476Y-113323714D02*
X175585523Y-113323714D01*
X175823619Y-112990380D02*
X175823619Y-113847523D01*
X175776000Y-113942761D01*
X175680761Y-113990380D01*
X175585523Y-113990380D01*
X174823619Y-113990380D02*
X174823619Y-113466571D01*
X174871238Y-113371333D01*
X174966476Y-113323714D01*
X175156952Y-113323714D01*
X175252190Y-113371333D01*
X174823619Y-113942761D02*
X174918857Y-113990380D01*
X175156952Y-113990380D01*
X175252190Y-113942761D01*
X175299809Y-113847523D01*
X175299809Y-113752285D01*
X175252190Y-113657047D01*
X175156952Y-113609428D01*
X174918857Y-113609428D01*
X174823619Y-113561809D01*
X173751714Y-113609428D02*
X172989809Y-113609428D01*
X173370761Y-113990380D02*
X173370761Y-113228476D01*
X172037428Y-112990380D02*
X172513619Y-112990380D01*
X172561238Y-113466571D01*
X172513619Y-113418952D01*
X172418380Y-113371333D01*
X172180285Y-113371333D01*
X172085047Y-113418952D01*
X172037428Y-113466571D01*
X171989809Y-113561809D01*
X171989809Y-113799904D01*
X172037428Y-113895142D01*
X172085047Y-113942761D01*
X172180285Y-113990380D01*
X172418380Y-113990380D01*
X172513619Y-113942761D01*
X172561238Y-113895142D01*
X171704095Y-112990380D02*
X171370761Y-113990380D01*
X171037428Y-112990380D01*
X187451904Y-55634000D02*
X187547142Y-55586380D01*
X187690000Y-55586380D01*
X187832857Y-55634000D01*
X187928095Y-55729238D01*
X187975714Y-55824476D01*
X188023333Y-56014952D01*
X188023333Y-56157809D01*
X187975714Y-56348285D01*
X187928095Y-56443523D01*
X187832857Y-56538761D01*
X187690000Y-56586380D01*
X187594761Y-56586380D01*
X187451904Y-56538761D01*
X187404285Y-56491142D01*
X187404285Y-56157809D01*
X187594761Y-56157809D01*
X186975714Y-56586380D02*
X186975714Y-55586380D01*
X186404285Y-56586380D01*
X186404285Y-55586380D01*
X185928095Y-56586380D02*
X185928095Y-55586380D01*
X185690000Y-55586380D01*
X185547142Y-55634000D01*
X185451904Y-55729238D01*
X185404285Y-55824476D01*
X185356666Y-56014952D01*
X185356666Y-56157809D01*
X185404285Y-56348285D01*
X185451904Y-56443523D01*
X185547142Y-56538761D01*
X185690000Y-56586380D01*
X185928095Y-56586380D01*
X183657714Y-56205428D02*
X182895809Y-56205428D01*
X183276761Y-56586380D02*
X183276761Y-55824476D01*
X181943428Y-55586380D02*
X182419619Y-55586380D01*
X182467238Y-56062571D01*
X182419619Y-56014952D01*
X182324380Y-55967333D01*
X182086285Y-55967333D01*
X181991047Y-56014952D01*
X181943428Y-56062571D01*
X181895809Y-56157809D01*
X181895809Y-56395904D01*
X181943428Y-56491142D01*
X181991047Y-56538761D01*
X182086285Y-56586380D01*
X182324380Y-56586380D01*
X182419619Y-56538761D01*
X182467238Y-56491142D01*
X181610095Y-55586380D02*
X181276761Y-56586380D01*
X180943428Y-55586380D01*
X181085904Y-78049428D02*
X180324000Y-78049428D01*
X180704952Y-78430380D02*
X180704952Y-77668476D01*
X179943047Y-77430380D02*
X179324000Y-77430380D01*
X179657333Y-77811333D01*
X179514476Y-77811333D01*
X179419238Y-77858952D01*
X179371619Y-77906571D01*
X179324000Y-78001809D01*
X179324000Y-78239904D01*
X179371619Y-78335142D01*
X179419238Y-78382761D01*
X179514476Y-78430380D01*
X179800190Y-78430380D01*
X179895428Y-78382761D01*
X179943047Y-78335142D01*
X179038285Y-77430380D02*
X178704952Y-78430380D01*
X178371619Y-77430380D01*
X178133523Y-77430380D02*
X177514476Y-77430380D01*
X177847809Y-77811333D01*
X177704952Y-77811333D01*
X177609714Y-77858952D01*
X177562095Y-77906571D01*
X177514476Y-78001809D01*
X177514476Y-78239904D01*
X177562095Y-78335142D01*
X177609714Y-78382761D01*
X177704952Y-78430380D01*
X177990666Y-78430380D01*
X178085904Y-78382761D01*
X178133523Y-78335142D01*
X180681047Y-75588761D02*
X180538190Y-75636380D01*
X180300095Y-75636380D01*
X180204857Y-75588761D01*
X180157238Y-75541142D01*
X180109619Y-75445904D01*
X180109619Y-75350666D01*
X180157238Y-75255428D01*
X180204857Y-75207809D01*
X180300095Y-75160190D01*
X180490571Y-75112571D01*
X180585809Y-75064952D01*
X180633428Y-75017333D01*
X180681047Y-74922095D01*
X180681047Y-74826857D01*
X180633428Y-74731619D01*
X180585809Y-74684000D01*
X180490571Y-74636380D01*
X180252476Y-74636380D01*
X180109619Y-74684000D01*
X179776285Y-74636380D02*
X179538190Y-75636380D01*
X179347714Y-74922095D01*
X179157238Y-75636380D01*
X178919142Y-74636380D01*
X178538190Y-75636380D02*
X178538190Y-74636380D01*
X178300095Y-74636380D01*
X178157238Y-74684000D01*
X178062000Y-74779238D01*
X178014380Y-74874476D01*
X177966761Y-75064952D01*
X177966761Y-75207809D01*
X178014380Y-75398285D01*
X178062000Y-75493523D01*
X178157238Y-75588761D01*
X178300095Y-75636380D01*
X178538190Y-75636380D01*
X177538190Y-75636380D02*
X177538190Y-74636380D01*
X176871523Y-74636380D02*
X176681047Y-74636380D01*
X176585809Y-74684000D01*
X176490571Y-74779238D01*
X176442952Y-74969714D01*
X176442952Y-75303047D01*
X176490571Y-75493523D01*
X176585809Y-75588761D01*
X176681047Y-75636380D01*
X176871523Y-75636380D01*
X176966761Y-75588761D01*
X177062000Y-75493523D01*
X177109619Y-75303047D01*
X177109619Y-74969714D01*
X177062000Y-74779238D01*
X176966761Y-74684000D01*
X176871523Y-74636380D01*
X180823904Y-73048761D02*
X180681047Y-73096380D01*
X180442952Y-73096380D01*
X180347714Y-73048761D01*
X180300095Y-73001142D01*
X180252476Y-72905904D01*
X180252476Y-72810666D01*
X180300095Y-72715428D01*
X180347714Y-72667809D01*
X180442952Y-72620190D01*
X180633428Y-72572571D01*
X180728666Y-72524952D01*
X180776285Y-72477333D01*
X180823904Y-72382095D01*
X180823904Y-72286857D01*
X180776285Y-72191619D01*
X180728666Y-72144000D01*
X180633428Y-72096380D01*
X180395333Y-72096380D01*
X180252476Y-72144000D01*
X179919142Y-72096380D02*
X179681047Y-73096380D01*
X179490571Y-72382095D01*
X179300095Y-73096380D01*
X179062000Y-72096380D01*
X178109619Y-73001142D02*
X178157238Y-73048761D01*
X178300095Y-73096380D01*
X178395333Y-73096380D01*
X178538190Y-73048761D01*
X178633428Y-72953523D01*
X178681047Y-72858285D01*
X178728666Y-72667809D01*
X178728666Y-72524952D01*
X178681047Y-72334476D01*
X178633428Y-72239238D01*
X178538190Y-72144000D01*
X178395333Y-72096380D01*
X178300095Y-72096380D01*
X178157238Y-72144000D01*
X178109619Y-72191619D01*
X177204857Y-73096380D02*
X177681047Y-73096380D01*
X177681047Y-72096380D01*
X176871523Y-73096380D02*
X176871523Y-72096380D01*
X176300095Y-73096380D02*
X176728666Y-72524952D01*
X176300095Y-72096380D02*
X176871523Y-72667809D01*
X180339904Y-69604000D02*
X180435142Y-69556380D01*
X180578000Y-69556380D01*
X180720857Y-69604000D01*
X180816095Y-69699238D01*
X180863714Y-69794476D01*
X180911333Y-69984952D01*
X180911333Y-70127809D01*
X180863714Y-70318285D01*
X180816095Y-70413523D01*
X180720857Y-70508761D01*
X180578000Y-70556380D01*
X180482761Y-70556380D01*
X180339904Y-70508761D01*
X180292285Y-70461142D01*
X180292285Y-70127809D01*
X180482761Y-70127809D01*
X179863714Y-70556380D02*
X179863714Y-69556380D01*
X179292285Y-70556380D01*
X179292285Y-69556380D01*
X178816095Y-70556380D02*
X178816095Y-69556380D01*
X178578000Y-69556380D01*
X178435142Y-69604000D01*
X178339904Y-69699238D01*
X178292285Y-69794476D01*
X178244666Y-69984952D01*
X178244666Y-70127809D01*
X178292285Y-70318285D01*
X178339904Y-70413523D01*
X178435142Y-70508761D01*
X178578000Y-70556380D01*
X178816095Y-70556380D01*
X181284380Y-88796761D02*
X181141523Y-88844380D01*
X180903428Y-88844380D01*
X180808190Y-88796761D01*
X180760571Y-88749142D01*
X180712952Y-88653904D01*
X180712952Y-88558666D01*
X180760571Y-88463428D01*
X180808190Y-88415809D01*
X180903428Y-88368190D01*
X181093904Y-88320571D01*
X181189142Y-88272952D01*
X181236761Y-88225333D01*
X181284380Y-88130095D01*
X181284380Y-88034857D01*
X181236761Y-87939619D01*
X181189142Y-87892000D01*
X181093904Y-87844380D01*
X180855809Y-87844380D01*
X180712952Y-87892000D01*
X179855809Y-88844380D02*
X179855809Y-88320571D01*
X179903428Y-88225333D01*
X179998666Y-88177714D01*
X180189142Y-88177714D01*
X180284380Y-88225333D01*
X179855809Y-88796761D02*
X179951047Y-88844380D01*
X180189142Y-88844380D01*
X180284380Y-88796761D01*
X180332000Y-88701523D01*
X180332000Y-88606285D01*
X180284380Y-88511047D01*
X180189142Y-88463428D01*
X179951047Y-88463428D01*
X179855809Y-88415809D01*
X179522476Y-88177714D02*
X179141523Y-88177714D01*
X179379619Y-88844380D02*
X179379619Y-87987238D01*
X179332000Y-87892000D01*
X179236761Y-87844380D01*
X179141523Y-87844380D01*
X178427238Y-88796761D02*
X178522476Y-88844380D01*
X178712952Y-88844380D01*
X178808190Y-88796761D01*
X178855809Y-88701523D01*
X178855809Y-88320571D01*
X178808190Y-88225333D01*
X178712952Y-88177714D01*
X178522476Y-88177714D01*
X178427238Y-88225333D01*
X178379619Y-88320571D01*
X178379619Y-88415809D01*
X178855809Y-88511047D01*
X181435238Y-83510380D02*
X181435238Y-82510380D01*
X181197142Y-82510380D01*
X181054285Y-82558000D01*
X180959047Y-82653238D01*
X180911428Y-82748476D01*
X180863809Y-82938952D01*
X180863809Y-83081809D01*
X180911428Y-83272285D01*
X180959047Y-83367523D01*
X181054285Y-83462761D01*
X181197142Y-83510380D01*
X181435238Y-83510380D01*
X180006666Y-83510380D02*
X180006666Y-82986571D01*
X180054285Y-82891333D01*
X180149523Y-82843714D01*
X180340000Y-82843714D01*
X180435238Y-82891333D01*
X180006666Y-83462761D02*
X180101904Y-83510380D01*
X180340000Y-83510380D01*
X180435238Y-83462761D01*
X180482857Y-83367523D01*
X180482857Y-83272285D01*
X180435238Y-83177047D01*
X180340000Y-83129428D01*
X180101904Y-83129428D01*
X180006666Y-83081809D01*
X179625714Y-82843714D02*
X179387619Y-83510380D01*
X179149523Y-82843714D02*
X179387619Y-83510380D01*
X179482857Y-83748476D01*
X179530476Y-83796095D01*
X179625714Y-83843714D01*
X194833714Y-93543428D02*
X194071809Y-93543428D01*
X194452761Y-93924380D02*
X194452761Y-93162476D01*
X193119428Y-92924380D02*
X193595619Y-92924380D01*
X193643238Y-93400571D01*
X193595619Y-93352952D01*
X193500380Y-93305333D01*
X193262285Y-93305333D01*
X193167047Y-93352952D01*
X193119428Y-93400571D01*
X193071809Y-93495809D01*
X193071809Y-93733904D01*
X193119428Y-93829142D01*
X193167047Y-93876761D01*
X193262285Y-93924380D01*
X193500380Y-93924380D01*
X193595619Y-93876761D01*
X193643238Y-93829142D01*
X192786095Y-92924380D02*
X192452761Y-93924380D01*
X192119428Y-92924380D01*
X194309904Y-95512000D02*
X194405142Y-95464380D01*
X194548000Y-95464380D01*
X194690857Y-95512000D01*
X194786095Y-95607238D01*
X194833714Y-95702476D01*
X194881333Y-95892952D01*
X194881333Y-96035809D01*
X194833714Y-96226285D01*
X194786095Y-96321523D01*
X194690857Y-96416761D01*
X194548000Y-96464380D01*
X194452761Y-96464380D01*
X194309904Y-96416761D01*
X194262285Y-96369142D01*
X194262285Y-96035809D01*
X194452761Y-96035809D01*
X193833714Y-96464380D02*
X193833714Y-95464380D01*
X193262285Y-96464380D01*
X193262285Y-95464380D01*
X192786095Y-96464380D02*
X192786095Y-95464380D01*
X192548000Y-95464380D01*
X192405142Y-95512000D01*
X192309904Y-95607238D01*
X192262285Y-95702476D01*
X192214666Y-95892952D01*
X192214666Y-96035809D01*
X192262285Y-96226285D01*
X192309904Y-96321523D01*
X192405142Y-96416761D01*
X192548000Y-96464380D01*
X192786095Y-96464380D01*
X194143238Y-103989142D02*
X194190857Y-104036761D01*
X194333714Y-104084380D01*
X194428952Y-104084380D01*
X194571809Y-104036761D01*
X194667047Y-103941523D01*
X194714666Y-103846285D01*
X194762285Y-103655809D01*
X194762285Y-103512952D01*
X194714666Y-103322476D01*
X194667047Y-103227238D01*
X194571809Y-103132000D01*
X194428952Y-103084380D01*
X194333714Y-103084380D01*
X194190857Y-103132000D01*
X194143238Y-103179619D01*
X193238476Y-104084380D02*
X193714666Y-104084380D01*
X193714666Y-103084380D01*
X192905142Y-104084380D02*
X192905142Y-103084380D01*
X192333714Y-104084380D02*
X192762285Y-103512952D01*
X192333714Y-103084380D02*
X192905142Y-103655809D01*
X193206666Y-101195142D02*
X193254285Y-101242761D01*
X193397142Y-101290380D01*
X193492380Y-101290380D01*
X193635238Y-101242761D01*
X193730476Y-101147523D01*
X193778095Y-101052285D01*
X193825714Y-100861809D01*
X193825714Y-100718952D01*
X193778095Y-100528476D01*
X193730476Y-100433238D01*
X193635238Y-100338000D01*
X193492380Y-100290380D01*
X193397142Y-100290380D01*
X193254285Y-100338000D01*
X193206666Y-100385619D01*
X192825714Y-101242761D02*
X192682857Y-101290380D01*
X192444761Y-101290380D01*
X192349523Y-101242761D01*
X192301904Y-101195142D01*
X192254285Y-101099904D01*
X192254285Y-101004666D01*
X192301904Y-100909428D01*
X192349523Y-100861809D01*
X192444761Y-100814190D01*
X192635238Y-100766571D01*
X192730476Y-100718952D01*
X192778095Y-100671333D01*
X192825714Y-100576095D01*
X192825714Y-100480857D01*
X192778095Y-100385619D01*
X192730476Y-100338000D01*
X192635238Y-100290380D01*
X192397142Y-100290380D01*
X192254285Y-100338000D01*
X194317809Y-99004380D02*
X194317809Y-98004380D01*
X194079714Y-98004380D01*
X193936857Y-98052000D01*
X193841619Y-98147238D01*
X193794000Y-98242476D01*
X193746380Y-98432952D01*
X193746380Y-98575809D01*
X193794000Y-98766285D01*
X193841619Y-98861523D01*
X193936857Y-98956761D01*
X194079714Y-99004380D01*
X194317809Y-99004380D01*
X193317809Y-99004380D02*
X193317809Y-98004380D01*
X192841619Y-99004380D02*
X192841619Y-98004380D01*
X192270190Y-99004380D01*
X192270190Y-98004380D01*
X155003666Y-70334238D02*
X155146523Y-70286619D01*
X155384619Y-70286619D01*
X155479857Y-70334238D01*
X155527476Y-70381857D01*
X155575095Y-70477095D01*
X155575095Y-70572333D01*
X155527476Y-70667571D01*
X155479857Y-70715190D01*
X155384619Y-70762809D01*
X155194142Y-70810428D01*
X155098904Y-70858047D01*
X155051285Y-70905666D01*
X155003666Y-71000904D01*
X155003666Y-71096142D01*
X155051285Y-71191380D01*
X155098904Y-71239000D01*
X155194142Y-71286619D01*
X155432238Y-71286619D01*
X155575095Y-71239000D01*
X155908428Y-71286619D02*
X156146523Y-70286619D01*
X156337000Y-71000904D01*
X156527476Y-70286619D01*
X156765571Y-71286619D01*
X157289380Y-70858047D02*
X157194142Y-70905666D01*
X157146523Y-70953285D01*
X157098904Y-71048523D01*
X157098904Y-71096142D01*
X157146523Y-71191380D01*
X157194142Y-71239000D01*
X157289380Y-71286619D01*
X157479857Y-71286619D01*
X157575095Y-71239000D01*
X157622714Y-71191380D01*
X157670333Y-71096142D01*
X157670333Y-71048523D01*
X157622714Y-70953285D01*
X157575095Y-70905666D01*
X157479857Y-70858047D01*
X157289380Y-70858047D01*
X157194142Y-70810428D01*
X157146523Y-70762809D01*
X157098904Y-70667571D01*
X157098904Y-70477095D01*
X157146523Y-70381857D01*
X157194142Y-70334238D01*
X157289380Y-70286619D01*
X157479857Y-70286619D01*
X157575095Y-70334238D01*
X157622714Y-70381857D01*
X157670333Y-70477095D01*
X157670333Y-70667571D01*
X157622714Y-70762809D01*
X157575095Y-70810428D01*
X157479857Y-70858047D01*
X128457561Y-76666666D02*
X128505180Y-76809523D01*
X128505180Y-77047619D01*
X128457561Y-77142857D01*
X128409942Y-77190476D01*
X128314704Y-77238095D01*
X128219466Y-77238095D01*
X128124228Y-77190476D01*
X128076609Y-77142857D01*
X128028990Y-77047619D01*
X127981371Y-76857142D01*
X127933752Y-76761904D01*
X127886133Y-76714285D01*
X127790895Y-76666666D01*
X127695657Y-76666666D01*
X127600419Y-76714285D01*
X127552800Y-76761904D01*
X127505180Y-76857142D01*
X127505180Y-77095238D01*
X127552800Y-77238095D01*
X127505180Y-77571428D02*
X128505180Y-77809523D01*
X127790895Y-78000000D01*
X128505180Y-78190476D01*
X127505180Y-78428571D01*
X127505180Y-78714285D02*
X127505180Y-79333333D01*
X127886133Y-79000000D01*
X127886133Y-79142857D01*
X127933752Y-79238095D01*
X127981371Y-79285714D01*
X128076609Y-79333333D01*
X128314704Y-79333333D01*
X128409942Y-79285714D01*
X128457561Y-79238095D01*
X128505180Y-79142857D01*
X128505180Y-78857142D01*
X128457561Y-78761904D01*
X128409942Y-78714285D01*
X128457561Y-62371666D02*
X128505180Y-62514523D01*
X128505180Y-62752619D01*
X128457561Y-62847857D01*
X128409942Y-62895476D01*
X128314704Y-62943095D01*
X128219466Y-62943095D01*
X128124228Y-62895476D01*
X128076609Y-62847857D01*
X128028990Y-62752619D01*
X127981371Y-62562142D01*
X127933752Y-62466904D01*
X127886133Y-62419285D01*
X127790895Y-62371666D01*
X127695657Y-62371666D01*
X127600419Y-62419285D01*
X127552800Y-62466904D01*
X127505180Y-62562142D01*
X127505180Y-62800238D01*
X127552800Y-62943095D01*
X127505180Y-63276428D02*
X128505180Y-63514523D01*
X127790895Y-63705000D01*
X128505180Y-63895476D01*
X127505180Y-64133571D01*
X127600419Y-64466904D02*
X127552800Y-64514523D01*
X127505180Y-64609761D01*
X127505180Y-64847857D01*
X127552800Y-64943095D01*
X127600419Y-64990714D01*
X127695657Y-65038333D01*
X127790895Y-65038333D01*
X127933752Y-64990714D01*
X128505180Y-64419285D01*
X128505180Y-65038333D01*
X128877542Y-74236342D02*
X128925161Y-74188723D01*
X128972780Y-74045866D01*
X128972780Y-73950628D01*
X128925161Y-73807771D01*
X128829923Y-73712533D01*
X128734685Y-73664914D01*
X128544209Y-73617295D01*
X128401352Y-73617295D01*
X128210876Y-73664914D01*
X128115638Y-73712533D01*
X128020400Y-73807771D01*
X127972780Y-73950628D01*
X127972780Y-74045866D01*
X128020400Y-74188723D01*
X128068019Y-74236342D01*
X128068019Y-74617295D02*
X128020400Y-74664914D01*
X127972780Y-74760152D01*
X127972780Y-74998247D01*
X128020400Y-75093485D01*
X128068019Y-75141104D01*
X128163257Y-75188723D01*
X128258495Y-75188723D01*
X128401352Y-75141104D01*
X128972780Y-74569676D01*
X128972780Y-75188723D01*
X127972780Y-75807771D02*
X127972780Y-75903009D01*
X128020400Y-75998247D01*
X128068019Y-76045866D01*
X128163257Y-76093485D01*
X128353733Y-76141104D01*
X128591828Y-76141104D01*
X128782304Y-76093485D01*
X128877542Y-76045866D01*
X128925161Y-75998247D01*
X128972780Y-75903009D01*
X128972780Y-75807771D01*
X128925161Y-75712533D01*
X128877542Y-75664914D01*
X128782304Y-75617295D01*
X128591828Y-75569676D01*
X128353733Y-75569676D01*
X128163257Y-75617295D01*
X128068019Y-75664914D01*
X128020400Y-75712533D01*
X127972780Y-75807771D01*
X132034342Y-66042342D02*
X132081961Y-65994723D01*
X132129580Y-65851866D01*
X132129580Y-65756628D01*
X132081961Y-65613771D01*
X131986723Y-65518533D01*
X131891485Y-65470914D01*
X131701009Y-65423295D01*
X131558152Y-65423295D01*
X131367676Y-65470914D01*
X131272438Y-65518533D01*
X131177200Y-65613771D01*
X131129580Y-65756628D01*
X131129580Y-65851866D01*
X131177200Y-65994723D01*
X131224819Y-66042342D01*
X132129580Y-66994723D02*
X132129580Y-66423295D01*
X132129580Y-66709009D02*
X131129580Y-66709009D01*
X131272438Y-66613771D01*
X131367676Y-66518533D01*
X131415295Y-66423295D01*
X132129580Y-67470914D02*
X132129580Y-67661390D01*
X132081961Y-67756628D01*
X132034342Y-67804247D01*
X131891485Y-67899485D01*
X131701009Y-67947104D01*
X131320057Y-67947104D01*
X131224819Y-67899485D01*
X131177200Y-67851866D01*
X131129580Y-67756628D01*
X131129580Y-67566152D01*
X131177200Y-67470914D01*
X131224819Y-67423295D01*
X131320057Y-67375676D01*
X131558152Y-67375676D01*
X131653390Y-67423295D01*
X131701009Y-67470914D01*
X131748628Y-67566152D01*
X131748628Y-67756628D01*
X131701009Y-67851866D01*
X131653390Y-67899485D01*
X131558152Y-67947104D01*
X187772933Y-90165380D02*
X187772933Y-90879666D01*
X187820552Y-91022523D01*
X187915790Y-91117761D01*
X188058647Y-91165380D01*
X188153885Y-91165380D01*
X186868171Y-90165380D02*
X187058647Y-90165380D01*
X187153885Y-90213000D01*
X187201504Y-90260619D01*
X187296742Y-90403476D01*
X187344361Y-90593952D01*
X187344361Y-90974904D01*
X187296742Y-91070142D01*
X187249123Y-91117761D01*
X187153885Y-91165380D01*
X186963409Y-91165380D01*
X186868171Y-91117761D01*
X186820552Y-91070142D01*
X186772933Y-90974904D01*
X186772933Y-90736809D01*
X186820552Y-90641571D01*
X186868171Y-90593952D01*
X186963409Y-90546333D01*
X187153885Y-90546333D01*
X187249123Y-90593952D01*
X187296742Y-90641571D01*
X187344361Y-90736809D01*
X186997380Y-48656666D02*
X187711666Y-48656666D01*
X187854523Y-48609047D01*
X187949761Y-48513809D01*
X187997380Y-48370952D01*
X187997380Y-48275714D01*
X186997380Y-49037619D02*
X186997380Y-49656666D01*
X187378333Y-49323333D01*
X187378333Y-49466190D01*
X187425952Y-49561428D01*
X187473571Y-49609047D01*
X187568809Y-49656666D01*
X187806904Y-49656666D01*
X187902142Y-49609047D01*
X187949761Y-49561428D01*
X187997380Y-49466190D01*
X187997380Y-49180476D01*
X187949761Y-49085238D01*
X187902142Y-49037619D01*
X151802761Y-46418666D02*
X151850380Y-46561523D01*
X151850380Y-46799619D01*
X151802761Y-46894857D01*
X151755142Y-46942476D01*
X151659904Y-46990095D01*
X151564666Y-46990095D01*
X151469428Y-46942476D01*
X151421809Y-46894857D01*
X151374190Y-46799619D01*
X151326571Y-46609142D01*
X151278952Y-46513904D01*
X151231333Y-46466285D01*
X151136095Y-46418666D01*
X151040857Y-46418666D01*
X150945619Y-46466285D01*
X150898000Y-46513904D01*
X150850380Y-46609142D01*
X150850380Y-46847238D01*
X150898000Y-46990095D01*
X150850380Y-47323428D02*
X151850380Y-47561523D01*
X151136095Y-47752000D01*
X151850380Y-47942476D01*
X150850380Y-48180571D01*
X150850380Y-48466285D02*
X150850380Y-49132952D01*
X151850380Y-48704380D01*
X140626761Y-46418666D02*
X140674380Y-46561523D01*
X140674380Y-46799619D01*
X140626761Y-46894857D01*
X140579142Y-46942476D01*
X140483904Y-46990095D01*
X140388666Y-46990095D01*
X140293428Y-46942476D01*
X140245809Y-46894857D01*
X140198190Y-46799619D01*
X140150571Y-46609142D01*
X140102952Y-46513904D01*
X140055333Y-46466285D01*
X139960095Y-46418666D01*
X139864857Y-46418666D01*
X139769619Y-46466285D01*
X139722000Y-46513904D01*
X139674380Y-46609142D01*
X139674380Y-46847238D01*
X139722000Y-46990095D01*
X139674380Y-47323428D02*
X140674380Y-47561523D01*
X139960095Y-47752000D01*
X140674380Y-47942476D01*
X139674380Y-48180571D01*
X139674380Y-48990095D02*
X139674380Y-48799619D01*
X139722000Y-48704380D01*
X139769619Y-48656761D01*
X139912476Y-48561523D01*
X140102952Y-48513904D01*
X140483904Y-48513904D01*
X140579142Y-48561523D01*
X140626761Y-48609142D01*
X140674380Y-48704380D01*
X140674380Y-48894857D01*
X140626761Y-48990095D01*
X140579142Y-49037714D01*
X140483904Y-49085333D01*
X140245809Y-49085333D01*
X140150571Y-49037714D01*
X140102952Y-48990095D01*
X140055333Y-48894857D01*
X140055333Y-48704380D01*
X140102952Y-48609142D01*
X140150571Y-48561523D01*
X140245809Y-48513904D01*
X129450761Y-46418666D02*
X129498380Y-46561523D01*
X129498380Y-46799619D01*
X129450761Y-46894857D01*
X129403142Y-46942476D01*
X129307904Y-46990095D01*
X129212666Y-46990095D01*
X129117428Y-46942476D01*
X129069809Y-46894857D01*
X129022190Y-46799619D01*
X128974571Y-46609142D01*
X128926952Y-46513904D01*
X128879333Y-46466285D01*
X128784095Y-46418666D01*
X128688857Y-46418666D01*
X128593619Y-46466285D01*
X128546000Y-46513904D01*
X128498380Y-46609142D01*
X128498380Y-46847238D01*
X128546000Y-46990095D01*
X128498380Y-47323428D02*
X129498380Y-47561523D01*
X128784095Y-47752000D01*
X129498380Y-47942476D01*
X128498380Y-48180571D01*
X128498380Y-49037714D02*
X128498380Y-48561523D01*
X128974571Y-48513904D01*
X128926952Y-48561523D01*
X128879333Y-48656761D01*
X128879333Y-48894857D01*
X128926952Y-48990095D01*
X128974571Y-49037714D01*
X129069809Y-49085333D01*
X129307904Y-49085333D01*
X129403142Y-49037714D01*
X129450761Y-48990095D01*
X129498380Y-48894857D01*
X129498380Y-48656761D01*
X129450761Y-48561523D01*
X129403142Y-48513904D01*
X170598761Y-46418666D02*
X170646380Y-46561523D01*
X170646380Y-46799619D01*
X170598761Y-46894857D01*
X170551142Y-46942476D01*
X170455904Y-46990095D01*
X170360666Y-46990095D01*
X170265428Y-46942476D01*
X170217809Y-46894857D01*
X170170190Y-46799619D01*
X170122571Y-46609142D01*
X170074952Y-46513904D01*
X170027333Y-46466285D01*
X169932095Y-46418666D01*
X169836857Y-46418666D01*
X169741619Y-46466285D01*
X169694000Y-46513904D01*
X169646380Y-46609142D01*
X169646380Y-46847238D01*
X169694000Y-46990095D01*
X169646380Y-47323428D02*
X170646380Y-47561523D01*
X169932095Y-47752000D01*
X170646380Y-47942476D01*
X169646380Y-48180571D01*
X169979714Y-48990095D02*
X170646380Y-48990095D01*
X169598761Y-48752000D02*
X170313047Y-48513904D01*
X170313047Y-49132952D01*
X142265333Y-117139761D02*
X142122476Y-117187380D01*
X141884380Y-117187380D01*
X141789142Y-117139761D01*
X141741523Y-117092142D01*
X141693904Y-116996904D01*
X141693904Y-116901666D01*
X141741523Y-116806428D01*
X141789142Y-116758809D01*
X141884380Y-116711190D01*
X142074857Y-116663571D01*
X142170095Y-116615952D01*
X142217714Y-116568333D01*
X142265333Y-116473095D01*
X142265333Y-116377857D01*
X142217714Y-116282619D01*
X142170095Y-116235000D01*
X142074857Y-116187380D01*
X141836761Y-116187380D01*
X141693904Y-116235000D01*
X141360571Y-116187380D02*
X141122476Y-117187380D01*
X140932000Y-116473095D01*
X140741523Y-117187380D01*
X140503428Y-116187380D01*
X139598666Y-117187380D02*
X140170095Y-117187380D01*
X139884380Y-117187380D02*
X139884380Y-116187380D01*
X139979619Y-116330238D01*
X140074857Y-116425476D01*
X140170095Y-116473095D01*
X165128533Y-121093080D02*
X165128533Y-121807366D01*
X165176152Y-121950223D01*
X165271390Y-122045461D01*
X165414247Y-122093080D01*
X165509485Y-122093080D01*
X164176152Y-121093080D02*
X164652342Y-121093080D01*
X164699961Y-121569271D01*
X164652342Y-121521652D01*
X164557104Y-121474033D01*
X164319009Y-121474033D01*
X164223771Y-121521652D01*
X164176152Y-121569271D01*
X164128533Y-121664509D01*
X164128533Y-121902604D01*
X164176152Y-121997842D01*
X164223771Y-122045461D01*
X164319009Y-122093080D01*
X164557104Y-122093080D01*
X164652342Y-122045461D01*
X164699961Y-121997842D01*
X169975333Y-121372480D02*
X169975333Y-122086766D01*
X170022952Y-122229623D01*
X170118190Y-122324861D01*
X170261047Y-122372480D01*
X170356285Y-122372480D01*
X169546761Y-121467719D02*
X169499142Y-121420100D01*
X169403904Y-121372480D01*
X169165809Y-121372480D01*
X169070571Y-121420100D01*
X169022952Y-121467719D01*
X168975333Y-121562957D01*
X168975333Y-121658195D01*
X169022952Y-121801052D01*
X169594380Y-122372480D01*
X168975333Y-122372480D01*
X186251333Y-90659380D02*
X186251333Y-91373666D01*
X186298952Y-91516523D01*
X186394190Y-91611761D01*
X186537047Y-91659380D01*
X186632285Y-91659380D01*
X185251333Y-91659380D02*
X185822761Y-91659380D01*
X185537047Y-91659380D02*
X185537047Y-90659380D01*
X185632285Y-90802238D01*
X185727523Y-90897476D01*
X185822761Y-90945095D01*
X187463333Y-79529380D02*
X187463333Y-80243666D01*
X187510952Y-80386523D01*
X187606190Y-80481761D01*
X187749047Y-80529380D01*
X187844285Y-80529380D01*
X186558571Y-79862714D02*
X186558571Y-80529380D01*
X186796666Y-79481761D02*
X187034761Y-80196047D01*
X186415714Y-80196047D01*
X158122857Y-56237142D02*
X158170476Y-56284761D01*
X158313333Y-56332380D01*
X158408571Y-56332380D01*
X158551428Y-56284761D01*
X158646666Y-56189523D01*
X158694285Y-56094285D01*
X158741904Y-55903809D01*
X158741904Y-55760952D01*
X158694285Y-55570476D01*
X158646666Y-55475238D01*
X158551428Y-55380000D01*
X158408571Y-55332380D01*
X158313333Y-55332380D01*
X158170476Y-55380000D01*
X158122857Y-55427619D01*
X157789523Y-55332380D02*
X157170476Y-55332380D01*
X157503809Y-55713333D01*
X157360952Y-55713333D01*
X157265714Y-55760952D01*
X157218095Y-55808571D01*
X157170476Y-55903809D01*
X157170476Y-56141904D01*
X157218095Y-56237142D01*
X157265714Y-56284761D01*
X157360952Y-56332380D01*
X157646666Y-56332380D01*
X157741904Y-56284761D01*
X157789523Y-56237142D01*
X156789523Y-55427619D02*
X156741904Y-55380000D01*
X156646666Y-55332380D01*
X156408571Y-55332380D01*
X156313333Y-55380000D01*
X156265714Y-55427619D01*
X156218095Y-55522857D01*
X156218095Y-55618095D01*
X156265714Y-55760952D01*
X156837142Y-56332380D01*
X156218095Y-56332380D01*
X148470857Y-55729142D02*
X148518476Y-55776761D01*
X148661333Y-55824380D01*
X148756571Y-55824380D01*
X148899428Y-55776761D01*
X148994666Y-55681523D01*
X149042285Y-55586285D01*
X149089904Y-55395809D01*
X149089904Y-55252952D01*
X149042285Y-55062476D01*
X148994666Y-54967238D01*
X148899428Y-54872000D01*
X148756571Y-54824380D01*
X148661333Y-54824380D01*
X148518476Y-54872000D01*
X148470857Y-54919619D01*
X148137523Y-54824380D02*
X147518476Y-54824380D01*
X147851809Y-55205333D01*
X147708952Y-55205333D01*
X147613714Y-55252952D01*
X147566095Y-55300571D01*
X147518476Y-55395809D01*
X147518476Y-55633904D01*
X147566095Y-55729142D01*
X147613714Y-55776761D01*
X147708952Y-55824380D01*
X147994666Y-55824380D01*
X148089904Y-55776761D01*
X148137523Y-55729142D01*
X146566095Y-55824380D02*
X147137523Y-55824380D01*
X146851809Y-55824380D02*
X146851809Y-54824380D01*
X146947047Y-54967238D01*
X147042285Y-55062476D01*
X147137523Y-55110095D01*
X132722857Y-57917142D02*
X132770476Y-57964761D01*
X132913333Y-58012380D01*
X133008571Y-58012380D01*
X133151428Y-57964761D01*
X133246666Y-57869523D01*
X133294285Y-57774285D01*
X133341904Y-57583809D01*
X133341904Y-57440952D01*
X133294285Y-57250476D01*
X133246666Y-57155238D01*
X133151428Y-57060000D01*
X133008571Y-57012380D01*
X132913333Y-57012380D01*
X132770476Y-57060000D01*
X132722857Y-57107619D01*
X132389523Y-57012380D02*
X131770476Y-57012380D01*
X132103809Y-57393333D01*
X131960952Y-57393333D01*
X131865714Y-57440952D01*
X131818095Y-57488571D01*
X131770476Y-57583809D01*
X131770476Y-57821904D01*
X131818095Y-57917142D01*
X131865714Y-57964761D01*
X131960952Y-58012380D01*
X132246666Y-58012380D01*
X132341904Y-57964761D01*
X132389523Y-57917142D01*
X131151428Y-57012380D02*
X131056190Y-57012380D01*
X130960952Y-57060000D01*
X130913333Y-57107619D01*
X130865714Y-57202857D01*
X130818095Y-57393333D01*
X130818095Y-57631428D01*
X130865714Y-57821904D01*
X130913333Y-57917142D01*
X130960952Y-57964761D01*
X131056190Y-58012380D01*
X131151428Y-58012380D01*
X131246666Y-57964761D01*
X131294285Y-57917142D01*
X131341904Y-57821904D01*
X131389523Y-57631428D01*
X131389523Y-57393333D01*
X131341904Y-57202857D01*
X131294285Y-57107619D01*
X131246666Y-57060000D01*
X131151428Y-57012380D01*
X173362857Y-57409142D02*
X173410476Y-57456761D01*
X173553333Y-57504380D01*
X173648571Y-57504380D01*
X173791428Y-57456761D01*
X173886666Y-57361523D01*
X173934285Y-57266285D01*
X173981904Y-57075809D01*
X173981904Y-56932952D01*
X173934285Y-56742476D01*
X173886666Y-56647238D01*
X173791428Y-56552000D01*
X173648571Y-56504380D01*
X173553333Y-56504380D01*
X173410476Y-56552000D01*
X173362857Y-56599619D01*
X172981904Y-56599619D02*
X172934285Y-56552000D01*
X172839047Y-56504380D01*
X172600952Y-56504380D01*
X172505714Y-56552000D01*
X172458095Y-56599619D01*
X172410476Y-56694857D01*
X172410476Y-56790095D01*
X172458095Y-56932952D01*
X173029523Y-57504380D01*
X172410476Y-57504380D01*
X171934285Y-57504380D02*
X171743809Y-57504380D01*
X171648571Y-57456761D01*
X171600952Y-57409142D01*
X171505714Y-57266285D01*
X171458095Y-57075809D01*
X171458095Y-56694857D01*
X171505714Y-56599619D01*
X171553333Y-56552000D01*
X171648571Y-56504380D01*
X171839047Y-56504380D01*
X171934285Y-56552000D01*
X171981904Y-56599619D01*
X172029523Y-56694857D01*
X172029523Y-56932952D01*
X171981904Y-57028190D01*
X171934285Y-57075809D01*
X171839047Y-57123428D01*
X171648571Y-57123428D01*
X171553333Y-57075809D01*
X171505714Y-57028190D01*
X171458095Y-56932952D01*
X177071257Y-69085942D02*
X177118876Y-69133561D01*
X177261733Y-69181180D01*
X177356971Y-69181180D01*
X177499828Y-69133561D01*
X177595066Y-69038323D01*
X177642685Y-68943085D01*
X177690304Y-68752609D01*
X177690304Y-68609752D01*
X177642685Y-68419276D01*
X177595066Y-68324038D01*
X177499828Y-68228800D01*
X177356971Y-68181180D01*
X177261733Y-68181180D01*
X177118876Y-68228800D01*
X177071257Y-68276419D01*
X176690304Y-68276419D02*
X176642685Y-68228800D01*
X176547447Y-68181180D01*
X176309352Y-68181180D01*
X176214114Y-68228800D01*
X176166495Y-68276419D01*
X176118876Y-68371657D01*
X176118876Y-68466895D01*
X176166495Y-68609752D01*
X176737923Y-69181180D01*
X176118876Y-69181180D01*
X175547447Y-68609752D02*
X175642685Y-68562133D01*
X175690304Y-68514514D01*
X175737923Y-68419276D01*
X175737923Y-68371657D01*
X175690304Y-68276419D01*
X175642685Y-68228800D01*
X175547447Y-68181180D01*
X175356971Y-68181180D01*
X175261733Y-68228800D01*
X175214114Y-68276419D01*
X175166495Y-68371657D01*
X175166495Y-68419276D01*
X175214114Y-68514514D01*
X175261733Y-68562133D01*
X175356971Y-68609752D01*
X175547447Y-68609752D01*
X175642685Y-68657371D01*
X175690304Y-68704990D01*
X175737923Y-68800228D01*
X175737923Y-68990704D01*
X175690304Y-69085942D01*
X175642685Y-69133561D01*
X175547447Y-69181180D01*
X175356971Y-69181180D01*
X175261733Y-69133561D01*
X175214114Y-69085942D01*
X175166495Y-68990704D01*
X175166495Y-68800228D01*
X175214114Y-68704990D01*
X175261733Y-68657371D01*
X175356971Y-68609752D01*
X177053857Y-67736542D02*
X177101476Y-67784161D01*
X177244333Y-67831780D01*
X177339571Y-67831780D01*
X177482428Y-67784161D01*
X177577666Y-67688923D01*
X177625285Y-67593685D01*
X177672904Y-67403209D01*
X177672904Y-67260352D01*
X177625285Y-67069876D01*
X177577666Y-66974638D01*
X177482428Y-66879400D01*
X177339571Y-66831780D01*
X177244333Y-66831780D01*
X177101476Y-66879400D01*
X177053857Y-66927019D01*
X176672904Y-66927019D02*
X176625285Y-66879400D01*
X176530047Y-66831780D01*
X176291952Y-66831780D01*
X176196714Y-66879400D01*
X176149095Y-66927019D01*
X176101476Y-67022257D01*
X176101476Y-67117495D01*
X176149095Y-67260352D01*
X176720523Y-67831780D01*
X176101476Y-67831780D01*
X175768142Y-66831780D02*
X175101476Y-66831780D01*
X175530047Y-67831780D01*
X144083066Y-108056742D02*
X144130685Y-108104361D01*
X144273542Y-108151980D01*
X144368780Y-108151980D01*
X144511638Y-108104361D01*
X144606876Y-108009123D01*
X144654495Y-107913885D01*
X144702114Y-107723409D01*
X144702114Y-107580552D01*
X144654495Y-107390076D01*
X144606876Y-107294838D01*
X144511638Y-107199600D01*
X144368780Y-107151980D01*
X144273542Y-107151980D01*
X144130685Y-107199600D01*
X144083066Y-107247219D01*
X143225923Y-107485314D02*
X143225923Y-108151980D01*
X143464019Y-107104361D02*
X143702114Y-107818647D01*
X143083066Y-107818647D01*
D11*
X153440000Y-72300000D02*
X158340000Y-72300000D01*
X153440000Y-59700000D02*
X153440000Y-72300000D01*
X167340000Y-61900000D02*
X167640000Y-62200000D01*
X166840000Y-72300000D02*
X166840000Y-69500000D01*
X161940000Y-72300000D02*
X166840000Y-72300000D01*
X167640000Y-62200000D02*
X167940000Y-61900000D01*
X166840000Y-59700000D02*
X166840000Y-62200000D01*
X167940000Y-61900000D02*
X167340000Y-61900000D01*
X162040000Y-59700000D02*
X166840000Y-59700000D01*
X160640000Y-66000000D02*
X159640000Y-66000000D01*
X160140000Y-65500000D02*
X160140000Y-66500000D01*
X158340000Y-59700000D02*
X153440000Y-59700000D01*
X163140000Y-66000000D02*
G75*
G03*
X163140000Y-66000000I-3000000J0D01*
G01*
X127232800Y-81230000D02*
X127232800Y-74770000D01*
X120772800Y-81230000D02*
X120802800Y-81230000D01*
X125302800Y-81230000D02*
X122702800Y-81230000D01*
X127232800Y-74770000D02*
X127202800Y-74770000D01*
X120772800Y-81230000D02*
X120772800Y-74770000D01*
X127202800Y-81230000D02*
X127232800Y-81230000D01*
X120772800Y-74770000D02*
X120802800Y-74770000D01*
X125302800Y-74770000D02*
X122702800Y-74770000D01*
X127232800Y-66935000D02*
X127232800Y-60475000D01*
X120772800Y-66935000D02*
X120802800Y-66935000D01*
X125302800Y-66935000D02*
X122702800Y-66935000D01*
X127232800Y-60475000D02*
X127202800Y-60475000D01*
X120772800Y-66935000D02*
X120772800Y-60475000D01*
X127202800Y-66935000D02*
X127232800Y-66935000D01*
X120772800Y-60475000D02*
X120802800Y-60475000D01*
X125302800Y-60475000D02*
X122702800Y-60475000D01*
X129465400Y-74617948D02*
X129465400Y-75140452D01*
X130935400Y-74617948D02*
X130935400Y-75140452D01*
X129262200Y-66946452D02*
X129262200Y-66423948D01*
X130732200Y-66946452D02*
X130732200Y-66423948D01*
X187154600Y-88643000D02*
X193154600Y-88643000D01*
X184164600Y-88823000D02*
X184494600Y-88823000D01*
X193154600Y-85523000D02*
X187154600Y-85523000D01*
X184097529Y-83743000D02*
X184494600Y-83743000D01*
X187154600Y-88403000D02*
X193154600Y-88403000D01*
X187154600Y-88823000D02*
X193154600Y-88823000D01*
X187154600Y-82033000D02*
X187154600Y-89773000D01*
X193154600Y-86283000D02*
X193154600Y-85523000D01*
X184164600Y-88063000D02*
X184494600Y-88063000D01*
X187154600Y-86283000D02*
X193154600Y-86283000D01*
X187154600Y-83743000D02*
X193154600Y-83743000D01*
X193154600Y-88823000D02*
X193154600Y-88063000D01*
X187154600Y-89773000D02*
X184494600Y-89773000D01*
X193154600Y-83743000D02*
X193154600Y-82983000D01*
X184097529Y-86283000D02*
X184494600Y-86283000D01*
X187154600Y-88163000D02*
X193154600Y-88163000D01*
X181784600Y-88443000D02*
X181784600Y-89713000D01*
X184097529Y-82983000D02*
X184494600Y-82983000D01*
X184494600Y-89773000D02*
X184494600Y-82033000D01*
X187154600Y-88523000D02*
X193154600Y-88523000D01*
X184494600Y-84633000D02*
X187154600Y-84633000D01*
X187154600Y-88763000D02*
X193154600Y-88763000D01*
X193154600Y-82983000D02*
X187154600Y-82983000D01*
X181784600Y-89713000D02*
X183054600Y-89713000D01*
X193154600Y-88063000D02*
X187154600Y-88063000D01*
X184494600Y-87173000D02*
X187154600Y-87173000D01*
X187154600Y-88283000D02*
X193154600Y-88283000D01*
X184097529Y-85523000D02*
X184494600Y-85523000D01*
X184494600Y-82033000D02*
X187154600Y-82033000D01*
X185115000Y-49275000D02*
X185115000Y-43275000D01*
X182355000Y-43275000D02*
X182355000Y-49275000D01*
X186545000Y-54645000D02*
X186545000Y-53375000D01*
X185355000Y-49275000D02*
X185355000Y-43275000D01*
X185655000Y-49275000D02*
X185655000Y-43275000D01*
X184895000Y-43275000D02*
X184895000Y-49275000D01*
X186605000Y-49275000D02*
X186605000Y-51935000D01*
X186605000Y-51935000D02*
X181405000Y-51935000D01*
X185475000Y-49275000D02*
X185475000Y-43275000D01*
X185655000Y-43275000D02*
X184895000Y-43275000D01*
X184995000Y-49275000D02*
X184995000Y-43275000D01*
X185595000Y-49275000D02*
X185595000Y-43275000D01*
X185275000Y-54645000D02*
X186545000Y-54645000D01*
X184005000Y-51935000D02*
X184005000Y-49275000D01*
X185235000Y-49275000D02*
X185235000Y-43275000D01*
X181405000Y-51935000D02*
X181405000Y-49275000D01*
X184895000Y-52265000D02*
X184895000Y-51935000D01*
X181405000Y-49275000D02*
X186605000Y-49275000D01*
X183115000Y-49275000D02*
X183115000Y-43275000D01*
X182355000Y-52332071D02*
X182355000Y-51935000D01*
X185655000Y-52265000D02*
X185655000Y-51935000D01*
X183115000Y-43275000D02*
X182355000Y-43275000D01*
X183115000Y-52332071D02*
X183115000Y-51935000D01*
X152218000Y-44522000D02*
X152218000Y-50982000D01*
X158678000Y-44522000D02*
X158648000Y-44522000D01*
X154148000Y-44522000D02*
X156748000Y-44522000D01*
X152218000Y-50982000D02*
X152248000Y-50982000D01*
X158678000Y-44522000D02*
X158678000Y-50982000D01*
X152248000Y-44522000D02*
X152218000Y-44522000D01*
X158678000Y-50982000D02*
X158648000Y-50982000D01*
X154148000Y-50982000D02*
X156748000Y-50982000D01*
X141042000Y-44522000D02*
X141042000Y-50982000D01*
X147502000Y-44522000D02*
X147472000Y-44522000D01*
X142972000Y-44522000D02*
X145572000Y-44522000D01*
X141042000Y-50982000D02*
X141072000Y-50982000D01*
X147502000Y-44522000D02*
X147502000Y-50982000D01*
X141072000Y-44522000D02*
X141042000Y-44522000D01*
X147502000Y-50982000D02*
X147472000Y-50982000D01*
X142972000Y-50982000D02*
X145572000Y-50982000D01*
X129866000Y-44522000D02*
X129866000Y-50982000D01*
X136326000Y-44522000D02*
X136296000Y-44522000D01*
X131796000Y-44522000D02*
X134396000Y-44522000D01*
X129866000Y-50982000D02*
X129896000Y-50982000D01*
X136326000Y-44522000D02*
X136326000Y-50982000D01*
X129896000Y-44522000D02*
X129866000Y-44522000D01*
X136326000Y-50982000D02*
X136296000Y-50982000D01*
X131796000Y-50982000D02*
X134396000Y-50982000D01*
X171014000Y-44522000D02*
X171014000Y-50982000D01*
X177474000Y-44522000D02*
X177444000Y-44522000D01*
X172944000Y-44522000D02*
X175544000Y-44522000D01*
X171014000Y-50982000D02*
X171044000Y-50982000D01*
X177474000Y-44522000D02*
X177474000Y-50982000D01*
X171044000Y-44522000D02*
X171014000Y-44522000D01*
X177474000Y-50982000D02*
X177444000Y-50982000D01*
X172944000Y-50982000D02*
X175544000Y-50982000D01*
X137702000Y-115915000D02*
X144162000Y-115915000D01*
X137702000Y-109455000D02*
X137702000Y-109485000D01*
X137702000Y-113985000D02*
X137702000Y-111385000D01*
X144162000Y-115915000D02*
X144162000Y-115885000D01*
X137702000Y-109455000D02*
X144162000Y-109455000D01*
X137702000Y-115885000D02*
X137702000Y-115915000D01*
X144162000Y-109455000D02*
X144162000Y-109485000D01*
X144162000Y-113985000D02*
X144162000Y-111385000D01*
X161031200Y-122010000D02*
X161031200Y-118590000D01*
X162101200Y-122590000D02*
X162101200Y-117590000D01*
X156821200Y-118590000D02*
X162101200Y-118590000D01*
X162101200Y-115390000D02*
X162101200Y-117590000D01*
X160711200Y-122090000D02*
X161031200Y-122010000D01*
X161031200Y-118590000D02*
X160711200Y-118590000D01*
X159381200Y-117590000D02*
X159541200Y-117590000D01*
X158211200Y-115500000D02*
X157911200Y-114900000D01*
X163321200Y-123810000D02*
X163321200Y-115390000D01*
X156821200Y-122590000D02*
X156821200Y-117590000D01*
X155601200Y-122590000D02*
X156821200Y-122590000D01*
X158211200Y-118590000D02*
X157891200Y-118590000D01*
X157911200Y-114900000D02*
X158511200Y-114900000D01*
X157891200Y-118590000D02*
X157891200Y-122010000D01*
X158511200Y-114900000D02*
X158211200Y-115500000D01*
X158211200Y-122090000D02*
X158531200Y-122010000D01*
X156821200Y-115390000D02*
X155601200Y-115390000D01*
X160711200Y-118590000D02*
X160391200Y-118590000D01*
X163321200Y-115390000D02*
X162101200Y-115390000D01*
X155601200Y-123810000D02*
X163321200Y-123810000D01*
X160391200Y-122010000D02*
X160711200Y-122090000D01*
X157891200Y-122010000D02*
X158211200Y-122090000D01*
X155601200Y-115390000D02*
X155601200Y-123810000D01*
X158531200Y-118590000D02*
X158211200Y-118590000D01*
X162101200Y-117590000D02*
X163321200Y-117590000D01*
X156821200Y-117590000D02*
X155601200Y-117590000D01*
X158531200Y-122010000D02*
X158531200Y-118590000D01*
X163321200Y-122590000D02*
X162101200Y-122590000D01*
X156821200Y-117590000D02*
X156821200Y-115390000D01*
X160391200Y-118590000D02*
X160391200Y-122010000D01*
X176820000Y-118590000D02*
X176500000Y-118590000D01*
X173680000Y-118590000D02*
X173680000Y-122010000D01*
X171390000Y-123810000D02*
X181610000Y-123810000D01*
X180390000Y-117590000D02*
X181610000Y-117590000D01*
X178680000Y-122010000D02*
X179000000Y-122090000D01*
X180390000Y-122590000D02*
X180390000Y-117590000D01*
X174000000Y-115500000D02*
X173700000Y-114900000D01*
X177670000Y-117590000D02*
X177830000Y-117590000D01*
X181610000Y-115390000D02*
X180390000Y-115390000D01*
X179320000Y-118590000D02*
X179000000Y-118590000D01*
X174320000Y-122010000D02*
X174320000Y-118590000D01*
X171390000Y-115390000D02*
X171390000Y-123810000D01*
X174000000Y-122090000D02*
X174320000Y-122010000D01*
X174320000Y-118590000D02*
X174000000Y-118590000D01*
X174300000Y-114900000D02*
X174000000Y-115500000D01*
X176180000Y-118590000D02*
X176180000Y-122010000D01*
X179320000Y-122010000D02*
X179320000Y-118590000D01*
X181610000Y-122590000D02*
X180390000Y-122590000D01*
X181610000Y-123810000D02*
X181610000Y-115390000D01*
X172610000Y-117590000D02*
X171390000Y-117590000D01*
X179000000Y-118590000D02*
X178680000Y-118590000D01*
X172610000Y-122590000D02*
X172610000Y-117590000D01*
X176180000Y-122010000D02*
X176500000Y-122090000D01*
X176500000Y-122090000D02*
X176820000Y-122010000D01*
X175170000Y-117590000D02*
X175330000Y-117590000D01*
X173680000Y-122010000D02*
X174000000Y-122090000D01*
X172610000Y-117590000D02*
X172610000Y-115390000D01*
X174000000Y-118590000D02*
X173680000Y-118590000D01*
X179000000Y-122090000D02*
X179320000Y-122010000D01*
X172610000Y-115390000D02*
X171390000Y-115390000D01*
X176820000Y-122010000D02*
X176820000Y-118590000D01*
X176500000Y-118590000D02*
X176180000Y-118590000D01*
X171390000Y-122590000D02*
X172610000Y-122590000D01*
X172610000Y-118590000D02*
X180390000Y-118590000D01*
X180390000Y-115390000D02*
X180390000Y-117590000D01*
X173700000Y-114900000D02*
X174300000Y-114900000D01*
X178680000Y-118590000D02*
X178680000Y-122010000D01*
X189260071Y-101477000D02*
X188863000Y-101477000D01*
X180203000Y-101477000D02*
X186203000Y-101477000D01*
X186203000Y-104967000D02*
X186203000Y-92147000D01*
X186203000Y-92147000D02*
X188863000Y-92147000D01*
X188863000Y-97287000D02*
X186203000Y-97287000D01*
X189260071Y-98937000D02*
X188863000Y-98937000D01*
X188863000Y-102367000D02*
X186203000Y-102367000D01*
X189260071Y-98177000D02*
X188863000Y-98177000D01*
X191573000Y-92207000D02*
X190303000Y-92207000D01*
X180203000Y-96397000D02*
X186203000Y-96397000D01*
X188863000Y-94747000D02*
X186203000Y-94747000D01*
X188863000Y-99827000D02*
X186203000Y-99827000D01*
X189193000Y-93857000D02*
X188863000Y-93857000D01*
X188863000Y-92147000D02*
X188863000Y-104967000D01*
X189260071Y-104017000D02*
X188863000Y-104017000D01*
X180203000Y-98177000D02*
X180203000Y-98937000D01*
X186203000Y-95637000D02*
X180203000Y-95637000D01*
X189260071Y-103257000D02*
X188863000Y-103257000D01*
X186203000Y-98177000D02*
X180203000Y-98177000D01*
X180203000Y-98937000D02*
X186203000Y-98937000D01*
X188863000Y-104967000D02*
X186203000Y-104967000D01*
X186203000Y-93517000D02*
X180203000Y-93517000D01*
X180203000Y-93857000D02*
X186203000Y-93857000D01*
X186203000Y-93157000D02*
X180203000Y-93157000D01*
X189260071Y-95637000D02*
X188863000Y-95637000D01*
X186203000Y-93277000D02*
X180203000Y-93277000D01*
X180203000Y-95637000D02*
X180203000Y-96397000D01*
X186203000Y-93397000D02*
X180203000Y-93397000D01*
X189193000Y-93097000D02*
X188863000Y-93097000D01*
X186203000Y-93757000D02*
X180203000Y-93757000D01*
X189260071Y-96397000D02*
X188863000Y-96397000D01*
X186203000Y-93637000D02*
X180203000Y-93637000D01*
X186203000Y-100717000D02*
X180203000Y-100717000D01*
X180203000Y-100717000D02*
X180203000Y-101477000D01*
X180203000Y-93097000D02*
X180203000Y-93857000D01*
X186203000Y-93097000D02*
X180203000Y-93097000D01*
X186203000Y-103257000D02*
X180203000Y-103257000D01*
X191573000Y-93477000D02*
X191573000Y-92207000D01*
X180203000Y-104017000D02*
X186203000Y-104017000D01*
X189260071Y-100717000D02*
X188863000Y-100717000D01*
X180203000Y-103257000D02*
X180203000Y-104017000D01*
X192845000Y-78187000D02*
X192845000Y-77427000D01*
X184185000Y-79137000D02*
X184185000Y-68857000D01*
X186845000Y-78127000D02*
X192845000Y-78127000D01*
X186845000Y-75647000D02*
X192845000Y-75647000D01*
X183787929Y-72347000D02*
X184185000Y-72347000D01*
X192845000Y-70567000D02*
X192845000Y-69807000D01*
X192845000Y-77427000D02*
X186845000Y-77427000D01*
X184185000Y-73997000D02*
X186845000Y-73997000D01*
X186845000Y-78187000D02*
X192845000Y-78187000D01*
X186845000Y-68857000D02*
X186845000Y-79137000D01*
X192845000Y-69807000D02*
X186845000Y-69807000D01*
X181475000Y-79077000D02*
X182745000Y-79077000D01*
X183855000Y-78187000D02*
X184185000Y-78187000D01*
X184185000Y-68857000D02*
X186845000Y-68857000D01*
X186845000Y-77527000D02*
X192845000Y-77527000D01*
X186845000Y-79137000D02*
X184185000Y-79137000D01*
X192845000Y-73107000D02*
X192845000Y-72347000D01*
X186845000Y-70567000D02*
X192845000Y-70567000D01*
X183855000Y-77427000D02*
X184185000Y-77427000D01*
X183787929Y-73107000D02*
X184185000Y-73107000D01*
X183787929Y-69807000D02*
X184185000Y-69807000D01*
X186845000Y-78007000D02*
X192845000Y-78007000D01*
X183787929Y-74887000D02*
X184185000Y-74887000D01*
X192845000Y-72347000D02*
X186845000Y-72347000D01*
X184185000Y-71457000D02*
X186845000Y-71457000D01*
X183787929Y-70567000D02*
X184185000Y-70567000D01*
X186845000Y-77647000D02*
X192845000Y-77647000D01*
X183787929Y-75647000D02*
X184185000Y-75647000D01*
X186845000Y-73107000D02*
X192845000Y-73107000D01*
X186845000Y-77887000D02*
X192845000Y-77887000D01*
X192845000Y-74887000D02*
X186845000Y-74887000D01*
X186845000Y-77767000D02*
X192845000Y-77767000D01*
X184185000Y-76537000D02*
X186845000Y-76537000D01*
X192845000Y-75647000D02*
X192845000Y-74887000D01*
X181475000Y-77807000D02*
X181475000Y-79077000D01*
X153662748Y-55145000D02*
X154185252Y-55145000D01*
X153662748Y-56615000D02*
X154185252Y-56615000D01*
X142486748Y-54637000D02*
X143009252Y-54637000D01*
X142486748Y-56107000D02*
X143009252Y-56107000D01*
X131818748Y-55145000D02*
X132341252Y-55145000D01*
X131818748Y-56615000D02*
X132341252Y-56615000D01*
X172458748Y-54637000D02*
X172981252Y-54637000D01*
X172458748Y-56107000D02*
X172981252Y-56107000D01*
X176689652Y-71143800D02*
X176167148Y-71143800D01*
X176689652Y-69673800D02*
X176167148Y-69673800D01*
X176149748Y-64964400D02*
X176672252Y-64964400D01*
X176149748Y-66434400D02*
X176672252Y-66434400D01*
X143655148Y-105284600D02*
X144177652Y-105284600D01*
X143655148Y-106754600D02*
X144177652Y-106754600D01*
M02*
